<svg width="197" height="56" viewBox="0 0 197 56" fill="none" xmlns="http://www.w3.org/2000/svg">
<path d="M68.68 8.1V9.96H62.78V14.06H67.38V15.92H62.78V22H60.5V8.1H68.68ZM73.073 12.58C73.4063 12.02 73.8463 11.5867 74.393 11.28C74.953 10.96 75.613 10.8 76.373 10.8V13.16H75.793C74.8996 13.16 74.2196 13.3867 73.753 13.84C73.2996 14.2933 73.073 15.08 73.073 16.2V22H70.793V10.98H73.073V12.58ZM88.5688 16.22C88.5688 16.6333 88.5421 17.0067 88.4888 17.34H80.0688C80.1354 18.22 80.4621 18.9267 81.0488 19.46C81.6354 19.9933 82.3554 20.26 83.2088 20.26C84.4354 20.26 85.3021 19.7467 85.8088 18.72H88.2687C87.9354 19.7333 87.3288 20.5667 86.4488 21.22C85.5821 21.86 84.5021 22.18 83.2088 22.18C82.1554 22.18 81.2088 21.9467 80.3688 21.48C79.5421 21 78.8888 20.3333 78.4088 19.48C77.9421 18.6133 77.7088 17.6133 77.7088 16.48C77.7088 15.3467 77.9354 14.3533 78.3888 13.5C78.8554 12.6333 79.5021 11.9667 80.3288 11.5C81.1688 11.0333 82.1288 10.8 83.2088 10.8C84.2488 10.8 85.1754 11.0267 85.9888 11.48C86.8021 11.9333 87.4354 12.5733 87.8888 13.4C88.3421 14.2133 88.5688 15.1533 88.5688 16.22ZM86.1888 15.5C86.1754 14.66 85.8754 13.9867 85.2888 13.48C84.7021 12.9733 83.9754 12.72 83.1088 12.72C82.3221 12.72 81.6488 12.9733 81.0888 13.48C80.5288 13.9733 80.1954 14.6467 80.0888 15.5H86.1888ZM100.913 16.22C100.913 16.6333 100.886 17.0067 100.833 17.34H92.4125C92.4792 18.22 92.8058 18.9267 93.3925 19.46C93.9792 19.9933 94.6992 20.26 95.5525 20.26C96.7792 20.26 97.6458 19.7467 98.1525 18.72H100.612C100.279 19.7333 99.6725 20.5667 98.7925 21.22C97.9258 21.86 96.8458 22.18 95.5525 22.18C94.4992 22.18 93.5525 21.9467 92.7125 21.48C91.8858 21 91.2325 20.3333 90.7525 19.48C90.2858 18.6133 90.0525 17.6133 90.0525 16.48C90.0525 15.3467 90.2792 14.3533 90.7325 13.5C91.1992 12.6333 91.8458 11.9667 92.6725 11.5C93.5125 11.0333 94.4725 10.8 95.5525 10.8C96.5925 10.8 97.5192 11.0267 98.3325 11.48C99.1458 11.9333 99.7792 12.5733 100.233 13.4C100.686 14.2133 100.913 15.1533 100.913 16.22ZM98.5325 15.5C98.5192 14.66 98.2192 13.9867 97.6325 13.48C97.0458 12.9733 96.3192 12.72 95.4525 12.72C94.6658 12.72 93.9925 12.9733 93.4325 13.48C92.8725 13.9733 92.5392 14.6467 92.4325 15.5H98.5325ZM112.932 22.14C111.998 22.14 111.158 21.98 110.412 21.66C109.665 21.3267 109.078 20.86 108.652 20.26C108.225 19.66 108.012 18.96 108.012 18.16H110.452C110.505 18.76 110.738 19.2533 111.152 19.64C111.578 20.0267 112.172 20.22 112.932 20.22C113.718 20.22 114.332 20.0333 114.772 19.66C115.212 19.2733 115.432 18.78 115.432 18.18C115.432 17.7133 115.292 17.3333 115.012 17.04C114.745 16.7467 114.405 16.52 113.992 16.36C113.592 16.2 113.032 16.0267 112.312 15.84C111.405 15.6 110.665 15.36 110.092 15.12C109.532 14.8667 109.052 14.48 108.652 13.96C108.252 13.44 108.052 12.7467 108.052 11.88C108.052 11.08 108.252 10.38 108.652 9.78C109.052 9.18 109.612 8.72 110.332 8.4C111.052 8.08 111.885 7.92 112.832 7.92C114.178 7.92 115.278 8.26 116.132 8.94C116.998 9.60667 117.478 10.5267 117.572 11.7H115.052C115.012 11.1933 114.772 10.76 114.332 10.4C113.892 10.04 113.312 9.86 112.592 9.86C111.938 9.86 111.405 10.0267 110.992 10.36C110.578 10.6933 110.372 11.1733 110.372 11.8C110.372 12.2267 110.498 12.58 110.752 12.86C111.018 13.1267 111.352 13.34 111.752 13.5C112.152 13.66 112.698 13.8333 113.392 14.02C114.312 14.2733 115.058 14.5267 115.632 14.78C116.218 15.0333 116.712 15.4267 117.112 15.96C117.525 16.48 117.732 17.18 117.732 18.06C117.732 18.7667 117.538 19.4333 117.152 20.06C116.778 20.6867 116.225 21.1933 115.492 21.58C114.772 21.9533 113.918 22.14 112.932 22.14ZM126.122 10.8C126.962 10.8 127.709 10.98 128.362 11.34C129.029 11.7 129.549 12.2333 129.922 12.94C130.309 13.6467 130.502 14.5 130.502 15.5V22H128.242V15.84C128.242 14.8533 127.995 14.1 127.502 13.58C127.009 13.0467 126.335 12.78 125.482 12.78C124.629 12.78 123.949 13.0467 123.442 13.58C122.949 14.1 122.702 14.8533 122.702 15.84V22H120.422V7.2H122.702V12.26C123.089 11.7933 123.575 11.4333 124.162 11.18C124.762 10.9267 125.415 10.8 126.122 10.8ZM134.57 9.52C134.157 9.52 133.81 9.38 133.53 9.1C133.25 8.82 133.11 8.47333 133.11 8.06C133.11 7.64667 133.25 7.3 133.53 7.02C133.81 6.74 134.157 6.6 134.57 6.6C134.97 6.6 135.31 6.74 135.59 7.02C135.87 7.3 136.01 7.64667 136.01 8.06C136.01 8.47333 135.87 8.82 135.59 9.1C135.31 9.38 134.97 9.52 134.57 9.52ZM135.69 10.98V22H133.41V10.98H135.69ZM140.964 12.6C141.35 12.0933 141.877 11.6667 142.544 11.32C143.21 10.9733 143.964 10.8 144.804 10.8C145.764 10.8 146.637 11.04 147.424 11.52C148.224 11.9867 148.85 12.6467 149.304 13.5C149.757 14.3533 149.984 15.3333 149.984 16.44C149.984 17.5467 149.757 18.54 149.304 19.42C148.85 20.2867 148.224 20.9667 147.424 21.46C146.637 21.94 145.764 22.18 144.804 22.18C143.964 22.18 143.217 22.0133 142.564 21.68C141.91 21.3333 141.377 20.9067 140.964 20.4V27.24H138.684V10.98H140.964V12.6ZM147.664 16.44C147.664 15.68 147.504 15.0267 147.184 14.48C146.877 13.92 146.464 13.5 145.944 13.22C145.437 12.9267 144.89 12.78 144.304 12.78C143.73 12.78 143.184 12.9267 142.664 13.22C142.157 13.5133 141.744 13.94 141.424 14.5C141.117 15.06 140.964 15.72 140.964 16.48C140.964 17.24 141.117 17.9067 141.424 18.48C141.744 19.04 142.157 19.4667 142.664 19.76C143.184 20.0533 143.73 20.2 144.304 20.2C144.89 20.2 145.437 20.0533 145.944 19.76C146.464 19.4533 146.877 19.0133 147.184 18.44C147.504 17.8667 147.664 17.2 147.664 16.44ZM154.518 12.6C154.905 12.0933 155.432 11.6667 156.098 11.32C156.765 10.9733 157.518 10.8 158.358 10.8C159.318 10.8 160.192 11.04 160.978 11.52C161.778 11.9867 162.405 12.6467 162.858 13.5C163.312 14.3533 163.538 15.3333 163.538 16.44C163.538 17.5467 163.312 18.54 162.858 19.42C162.405 20.2867 161.778 20.9667 160.978 21.46C160.192 21.94 159.318 22.18 158.358 22.18C157.518 22.18 156.772 22.0133 156.118 21.68C155.465 21.3333 154.932 20.9067 154.518 20.4V27.24H152.238V10.98H154.518V12.6ZM161.218 16.44C161.218 15.68 161.058 15.0267 160.738 14.48C160.432 13.92 160.018 13.5 159.498 13.22C158.992 12.9267 158.445 12.78 157.858 12.78C157.285 12.78 156.738 12.9267 156.218 13.22C155.712 13.5133 155.298 13.94 154.978 14.5C154.672 15.06 154.518 15.72 154.518 16.48C154.518 17.24 154.672 17.9067 154.978 18.48C155.298 19.04 155.712 19.4667 156.218 19.76C156.738 20.0533 157.285 20.2 157.858 20.2C158.445 20.2 158.992 20.0533 159.498 19.76C160.018 19.4533 160.432 19.0133 160.738 18.44C161.058 17.8667 161.218 17.2 161.218 16.44ZM166.953 9.52C166.54 9.52 166.193 9.38 165.913 9.1C165.633 8.82 165.493 8.47333 165.493 8.06C165.493 7.64667 165.633 7.3 165.913 7.02C166.193 6.74 166.54 6.6 166.953 6.6C167.353 6.6 167.693 6.74 167.973 7.02C168.253 7.3 168.393 7.64667 168.393 8.06C168.393 8.47333 168.253 8.82 167.973 9.1C167.693 9.38 167.353 9.52 166.953 9.52ZM168.073 10.98V22H165.793V10.98H168.073ZM176.626 10.8C177.493 10.8 178.266 10.98 178.946 11.34C179.64 11.7 180.18 12.2333 180.566 12.94C180.953 13.6467 181.146 14.5 181.146 15.5V22H178.886V15.84C178.886 14.8533 178.64 14.1 178.146 13.58C177.653 13.0467 176.98 12.78 176.126 12.78C175.273 12.78 174.593 13.0467 174.086 13.58C173.593 14.1 173.346 14.8533 173.346 15.84V22H171.066V10.98H173.346V12.24C173.72 11.7867 174.193 11.4333 174.766 11.18C175.353 10.9267 175.973 10.8 176.626 10.8ZM188.495 10.8C189.348 10.8 190.101 10.9733 190.755 11.32C191.421 11.6533 191.941 12.0733 192.315 12.58V10.98H194.615V22.18C194.615 23.1933 194.401 24.0933 193.975 24.88C193.548 25.68 192.928 26.3067 192.115 26.76C191.315 27.2133 190.355 27.44 189.235 27.44C187.741 27.44 186.501 27.0867 185.515 26.38C184.528 25.6867 183.968 24.74 183.835 23.54H186.095C186.268 24.1133 186.635 24.5733 187.195 24.92C187.768 25.28 188.448 25.46 189.235 25.46C190.155 25.46 190.895 25.18 191.455 24.62C192.028 24.06 192.315 23.2467 192.315 22.18V20.34C191.928 20.86 191.401 21.3 190.735 21.66C190.081 22.0067 189.335 22.18 188.495 22.18C187.535 22.18 186.655 21.94 185.855 21.46C185.068 20.9667 184.441 20.2867 183.975 19.42C183.521 18.54 183.295 17.5467 183.295 16.44C183.295 15.3333 183.521 14.3533 183.975 13.5C184.441 12.6467 185.068 11.9867 185.855 11.52C186.655 11.04 187.535 10.8 188.495 10.8ZM192.315 16.48C192.315 15.72 192.155 15.06 191.835 14.5C191.528 13.94 191.121 13.5133 190.615 13.22C190.108 12.9267 189.561 12.78 188.975 12.78C188.388 12.78 187.841 12.9267 187.335 13.22C186.828 13.5 186.415 13.92 186.095 14.48C185.788 15.0267 185.635 15.68 185.635 16.44C185.635 17.2 185.788 17.8667 186.095 18.44C186.415 19.0133 186.828 19.4533 187.335 19.76C187.855 20.0533 188.401 20.2 188.975 20.2C189.561 20.2 190.108 20.0533 190.615 19.76C191.121 19.4667 191.528 19.04 191.835 18.48C192.155 17.9067 192.315 17.24 192.315 16.48Z" fill="#484848"/>
<path d="M65.288 49.112C64.2533 49.112 63.3093 48.872 62.456 48.392C61.6027 47.9013 60.9253 47.224 60.424 46.36C59.9333 45.4853 59.688 44.504 59.688 43.416C59.688 42.328 59.9333 41.352 60.424 40.488C60.9253 39.6133 61.6027 38.936 62.456 38.456C63.3093 37.9653 64.2533 37.72 65.288 37.72C66.3333 37.72 67.2827 37.9653 68.136 38.456C68.9893 38.936 69.6613 39.608 70.152 40.472C70.6427 41.336 70.888 42.3173 70.888 43.416C70.888 44.5147 70.6427 45.496 70.152 46.36C69.6613 47.224 68.9893 47.9013 68.136 48.392C67.2827 48.872 66.3333 49.112 65.288 49.112ZM65.288 47.848C66.0667 47.848 66.7653 47.6667 67.384 47.304C68.0133 46.9413 68.504 46.424 68.856 45.752C69.2187 45.08 69.4 44.3013 69.4 43.416C69.4 42.52 69.2187 41.7413 68.856 41.08C68.504 40.408 68.0187 39.8907 67.4 39.528C66.7813 39.1653 66.0773 38.984 65.288 38.984C64.4987 38.984 63.7947 39.1653 63.176 39.528C62.5573 39.8907 62.0667 40.408 61.704 41.08C61.352 41.7413 61.176 42.52 61.176 43.416C61.176 44.3013 61.352 45.08 61.704 45.752C62.0667 46.424 62.5573 46.9413 63.176 47.304C63.8053 47.6667 64.5093 47.848 65.288 47.848ZM74.2661 41.656C74.5221 41.1547 74.8848 40.7653 75.3541 40.488C75.8341 40.2107 76.4155 40.072 77.0981 40.072V41.576H76.7141C75.0821 41.576 74.2661 42.4613 74.2661 44.232V49H72.8101V40.232H74.2661V41.656ZM78.2349 44.584C78.2349 43.688 78.4162 42.904 78.7789 42.232C79.1415 41.5493 79.6375 41.0213 80.2669 40.648C80.9069 40.2747 81.6215 40.088 82.4109 40.088C83.0935 40.088 83.7282 40.248 84.3149 40.568C84.9015 40.8773 85.3495 41.288 85.6589 41.8V37.16H87.1309V49H85.6589V47.352C85.3709 47.8747 84.9442 48.3067 84.3789 48.648C83.8135 48.9787 83.1522 49.144 82.3949 49.144C81.6162 49.144 80.9069 48.952 80.2669 48.568C79.6375 48.184 79.1415 47.6453 78.7789 46.952C78.4162 46.2587 78.2349 45.4693 78.2349 44.584ZM85.6589 44.6C85.6589 43.9387 85.5255 43.3627 85.2589 42.872C84.9922 42.3813 84.6295 42.008 84.1709 41.752C83.7229 41.4853 83.2269 41.352 82.6829 41.352C82.1389 41.352 81.6429 41.48 81.1949 41.736C80.7469 41.992 80.3895 42.3653 80.1229 42.856C79.8562 43.3467 79.7229 43.9227 79.7229 44.584C79.7229 45.256 79.8562 45.8427 80.1229 46.344C80.3895 46.8347 80.7469 47.2133 81.1949 47.48C81.6429 47.736 82.1389 47.864 82.6829 47.864C83.2269 47.864 83.7229 47.736 84.1709 47.48C84.6295 47.2133 84.9922 46.8347 85.2589 46.344C85.5255 45.8427 85.6589 45.2613 85.6589 44.6ZM97.5914 44.28C97.5914 44.5573 97.5754 44.8507 97.5434 45.16H90.5354C90.5887 46.024 90.882 46.7013 91.4154 47.192C91.9594 47.672 92.6154 47.912 93.3834 47.912C94.0127 47.912 94.5354 47.768 94.9514 47.48C95.378 47.1813 95.6767 46.7867 95.8474 46.296H97.4154C97.1807 47.1387 96.7114 47.8267 96.0074 48.36C95.3034 48.8827 94.4287 49.144 93.3834 49.144C92.5514 49.144 91.8047 48.9573 91.1434 48.584C90.4927 48.2107 89.9807 47.6827 89.6074 47C89.234 46.3067 89.0474 45.5067 89.0474 44.6C89.0474 43.6933 89.2287 42.8987 89.5914 42.216C89.954 41.5333 90.4607 41.0107 91.1114 40.648C91.7727 40.2747 92.53 40.088 93.3834 40.088C94.2154 40.088 94.9514 40.2693 95.5914 40.632C96.2314 40.9947 96.722 41.496 97.0634 42.136C97.4154 42.7653 97.5914 43.48 97.5914 44.28ZM96.0874 43.976C96.0874 43.4213 95.9647 42.9467 95.7194 42.552C95.474 42.1467 95.138 41.8427 94.7114 41.64C94.2954 41.4267 93.8314 41.32 93.3194 41.32C92.5834 41.32 91.954 41.5547 91.4314 42.024C90.9194 42.4933 90.626 43.144 90.5514 43.976H96.0874ZM100.969 41.656C101.225 41.1547 101.588 40.7653 102.057 40.488C102.537 40.2107 103.119 40.072 103.801 40.072V41.576H103.417C101.785 41.576 100.969 42.4613 100.969 44.232V49H99.5133V40.232H100.969V41.656ZM113.572 49.144C112.75 49.144 112.004 48.9573 111.332 48.584C110.67 48.2107 110.148 47.6827 109.764 47C109.39 46.3067 109.204 45.5067 109.204 44.6C109.204 43.704 109.396 42.9147 109.78 42.232C110.174 41.5387 110.708 41.0107 111.38 40.648C112.052 40.2747 112.804 40.088 113.636 40.088C114.468 40.088 115.22 40.2747 115.892 40.648C116.564 41.0107 117.092 41.5333 117.476 42.216C117.87 42.8987 118.068 43.6933 118.068 44.6C118.068 45.5067 117.865 46.3067 117.46 47C117.065 47.6827 116.526 48.2107 115.844 48.584C115.161 48.9573 114.404 49.144 113.572 49.144ZM113.572 47.864C114.094 47.864 114.585 47.7413 115.044 47.496C115.502 47.2507 115.87 46.8827 116.148 46.392C116.436 45.9013 116.58 45.304 116.58 44.6C116.58 43.896 116.441 43.2987 116.164 42.808C115.886 42.3173 115.524 41.9547 115.076 41.72C114.628 41.4747 114.142 41.352 113.62 41.352C113.086 41.352 112.596 41.4747 112.148 41.72C111.71 41.9547 111.358 42.3173 111.092 42.808C110.825 43.2987 110.692 43.896 110.692 44.6C110.692 45.3147 110.82 45.9173 111.076 46.408C111.342 46.8987 111.694 47.2667 112.132 47.512C112.569 47.7467 113.049 47.864 113.572 47.864ZM123.246 47.656L125.966 40.232H127.518L124.078 49H122.382L118.942 40.232H120.51L123.246 47.656ZM136.951 44.28C136.951 44.5573 136.935 44.8507 136.903 45.16H129.895C129.948 46.024 130.241 46.7013 130.775 47.192C131.319 47.672 131.975 47.912 132.743 47.912C133.372 47.912 133.895 47.768 134.311 47.48C134.737 47.1813 135.036 46.7867 135.207 46.296H136.775C136.54 47.1387 136.071 47.8267 135.367 48.36C134.663 48.8827 133.788 49.144 132.743 49.144C131.911 49.144 131.164 48.9573 130.503 48.584C129.852 48.2107 129.34 47.6827 128.967 47C128.593 46.3067 128.407 45.5067 128.407 44.6C128.407 43.6933 128.588 42.8987 128.951 42.216C129.313 41.5333 129.82 41.0107 130.471 40.648C131.132 40.2747 131.889 40.088 132.743 40.088C133.575 40.088 134.311 40.2693 134.951 40.632C135.591 40.9947 136.081 41.496 136.423 42.136C136.775 42.7653 136.951 43.48 136.951 44.28ZM135.447 43.976C135.447 43.4213 135.324 42.9467 135.079 42.552C134.833 42.1467 134.497 41.8427 134.071 41.64C133.655 41.4267 133.191 41.32 132.679 41.32C131.943 41.32 131.313 41.5547 130.791 42.024C130.279 42.4933 129.985 43.144 129.911 43.976H135.447ZM140.329 41.656C140.585 41.1547 140.947 40.7653 141.417 40.488C141.897 40.2107 142.478 40.072 143.161 40.072V41.576H142.777C141.145 41.576 140.329 42.4613 140.329 44.232V49H138.873V40.232H140.329V41.656ZM148.483 38.76V37.432H151.491V49H150.019V38.76H148.483ZM161.368 38.696H155.752V42.344C155.997 42.0027 156.36 41.7253 156.84 41.512C157.32 41.288 157.837 41.176 158.392 41.176C159.277 41.176 159.997 41.3627 160.552 41.736C161.107 42.0987 161.501 42.5733 161.736 43.16C161.981 43.736 162.104 44.3493 162.104 45C162.104 45.768 161.96 46.456 161.672 47.064C161.384 47.672 160.941 48.152 160.344 48.504C159.757 48.856 159.027 49.032 158.152 49.032C157.032 49.032 156.125 48.744 155.432 48.168C154.739 47.592 154.317 46.824 154.168 45.864H155.592C155.731 46.472 156.024 46.9467 156.472 47.288C156.92 47.6293 157.485 47.8 158.168 47.8C159.011 47.8 159.645 47.5493 160.072 47.048C160.499 46.536 160.712 45.864 160.712 45.032C160.712 44.2 160.499 43.56 160.072 43.112C159.645 42.6533 159.016 42.424 158.184 42.424C157.619 42.424 157.123 42.5627 156.696 42.84C156.28 43.1067 155.976 43.4747 155.784 43.944H154.408V37.416H161.368V38.696ZM164.039 43.096C164.039 41.2613 164.338 39.832 164.935 38.808C165.532 37.7733 166.578 37.256 168.071 37.256C169.554 37.256 170.594 37.7733 171.191 38.808C171.788 39.832 172.087 41.2613 172.087 43.096C172.087 44.9627 171.788 46.4133 171.191 47.448C170.594 48.4827 169.554 49 168.071 49C166.578 49 165.532 48.4827 164.935 47.448C164.338 46.4133 164.039 44.9627 164.039 43.096ZM170.647 43.096C170.647 42.168 170.583 41.384 170.455 40.744C170.338 40.0933 170.087 39.5707 169.703 39.176C169.33 38.7813 168.786 38.584 168.071 38.584C167.346 38.584 166.791 38.7813 166.407 39.176C166.034 39.5707 165.783 40.0933 165.655 40.744C165.538 41.384 165.479 42.168 165.479 43.096C165.479 44.056 165.538 44.8613 165.655 45.512C165.783 46.1627 166.034 46.6853 166.407 47.08C166.791 47.4747 167.346 47.672 168.071 47.672C168.786 47.672 169.33 47.4747 169.703 47.08C170.087 46.6853 170.338 46.1627 170.455 45.512C170.583 44.8613 170.647 44.056 170.647 43.096ZM185.791 45.944C185.791 46.456 185.663 46.9467 185.407 47.416C185.151 47.8747 184.773 48.2587 184.271 48.568C183.781 48.8773 183.189 49.0533 182.495 49.096V50.392H181.631V49.096C180.661 49.0107 179.871 48.7013 179.263 48.168C178.655 47.624 178.346 46.936 178.335 46.104H179.887C179.93 46.552 180.095 46.9413 180.383 47.272C180.682 47.6027 181.098 47.8107 181.631 47.896V43.896C180.917 43.7147 180.341 43.528 179.903 43.336C179.466 43.144 179.093 42.8453 178.783 42.44C178.474 42.0347 178.319 41.4907 178.319 40.808C178.319 39.944 178.618 39.2293 179.215 38.664C179.823 38.0987 180.629 37.784 181.631 37.72V36.392H182.495V37.72C183.402 37.7947 184.133 38.088 184.687 38.6C185.242 39.1013 185.562 39.7573 185.647 40.568H184.095C184.042 40.1947 183.877 39.8587 183.599 39.56C183.322 39.2507 182.954 39.048 182.495 38.952V42.856C183.199 43.0373 183.77 43.224 184.207 43.416C184.655 43.5973 185.029 43.8907 185.327 44.296C185.637 44.7013 185.791 45.2507 185.791 45.944ZM179.807 40.728C179.807 41.2507 179.962 41.6507 180.271 41.928C180.581 42.2053 181.034 42.4347 181.631 42.616V38.92C181.077 38.9733 180.634 39.1547 180.303 39.464C179.973 39.7627 179.807 40.184 179.807 40.728ZM182.495 47.912C183.071 47.848 183.519 47.64 183.839 47.288C184.17 46.936 184.335 46.5147 184.335 46.024C184.335 45.5013 184.175 45.1013 183.855 44.824C183.535 44.536 183.082 44.3067 182.495 44.136V47.912Z" fill="#484848"/>
<path d="M45.557 15.1712L23.4089 3.10116C23.2856 3.03474 23.1481 3 23.0085 3C22.8689 3 22.7314 3.03474 22.6081 3.10116L0.46 15.1712C0.322383 15.2434 0.206829 15.3522 0.125776 15.4858C0.0447135 15.6195 0.00122667 15.7731 0 15.9299V40.07C0.000408889 40.226 0.0426183 40.3789 0.122122 40.5126C0.201633 40.6461 0.315458 40.7554 0.451482 40.8287L22.5996 52.8988C22.7229 52.9653 22.8604 53 23 53C23.1396 53 23.2771 52.9653 23.4004 52.8988L45.5485 40.8287C45.6846 40.7554 45.7984 40.6461 45.8778 40.5126C45.9574 40.3789 45.9996 40.226 46 40.07V15.9299C46.0004 15.7748 45.9594 15.6225 45.8815 15.489C45.8036 15.3554 45.6915 15.2457 45.557 15.1712ZM23 4.84269L43.3593 15.9299L37.3963 19.1802L17.7441 7.70502L23 4.84269ZM2.64074 15.9299L9.05519 12.4813L28.6989 23.9134L23 27.0171L2.64074 15.9299ZM15.9807 8.66201L35.633 20.1372L30.4622 22.9564L10.8185 11.4726L15.9807 8.66201ZM31.5952 24.2927L36.2293 21.7753V28.2069L34.4404 26.4136C34.341 26.3137 34.2188 26.2401 34.0845 26.1994C33.9504 26.1587 33.8083 26.1521 33.671 26.1802C33.5337 26.2084 33.4053 26.2704 33.2974 26.3607C33.1893 26.451 33.105 26.5669 33.0518 26.6981L31.5952 30.2502V24.2927ZM1.7037 17.3697L22.1481 28.5173V50.7003L1.7037 39.5527V17.3697ZM23.8519 50.7003V28.5173L29.8915 25.2238V34.5868C29.9014 34.7798 29.975 34.964 30.1007 35.1095C30.2263 35.2551 30.3967 35.3536 30.5844 35.3895C30.7721 35.4253 30.9663 35.3962 31.1356 35.3069C31.305 35.2176 31.4399 35.0734 31.5185 34.8971L34.1252 28.5259L36.4593 30.8709C36.5784 30.9926 36.7307 31.0754 36.8965 31.1091C37.0625 31.1428 37.2344 31.1258 37.3908 31.0601C37.547 30.9944 37.6804 30.8832 37.7739 30.7404C37.8675 30.5977 37.9169 30.43 37.9159 30.2588V20.8441L44.2878 17.3955V39.5527L23.8519 50.7003Z" fill="black"/>
</svg>
