<svg width="277" height="56" viewBox="0 0 277 56" fill="none" xmlns="http://www.w3.org/2000/svg">
<path d="M76.6 8.1V22H74.32V15.92H67.78V22H65.5V8.1H67.78V14.06H74.32V8.1H76.6ZM80.7616 9.52C80.3482 9.52 80.0016 9.38 79.7216 9.1C79.4416 8.82 79.3016 8.47333 79.3016 8.06C79.3016 7.64667 79.4416 7.3 79.7216 7.02C80.0016 6.74 80.3482 6.6 80.7616 6.6C81.1616 6.6 81.5016 6.74 81.7816 7.02C82.0616 7.3 82.2016 7.64667 82.2016 8.06C82.2016 8.47333 82.0616 8.82 81.7816 9.1C81.5016 9.38 81.1616 9.52 80.7616 9.52ZM81.8816 10.98V22H79.6016V10.98H81.8816ZM89.315 10.8C90.1683 10.8 90.9217 10.9733 91.575 11.32C92.2417 11.6533 92.7617 12.0733 93.135 12.58V10.98H95.435V22.18C95.435 23.1933 95.2217 24.0933 94.795 24.88C94.3683 25.68 93.7483 26.3067 92.935 26.76C92.135 27.2133 91.175 27.44 90.055 27.44C88.5617 27.44 87.3217 27.0867 86.335 26.38C85.3483 25.6867 84.7883 24.74 84.655 23.54H86.915C87.0883 24.1133 87.455 24.5733 88.015 24.92C88.5883 25.28 89.2683 25.46 90.055 25.46C90.975 25.46 91.715 25.18 92.275 24.62C92.8483 24.06 93.135 23.2467 93.135 22.18V20.34C92.7483 20.86 92.2217 21.3 91.555 21.66C90.9017 22.0067 90.155 22.18 89.315 22.18C88.355 22.18 87.475 21.94 86.675 21.46C85.8883 20.9667 85.2617 20.2867 84.795 19.42C84.3417 18.54 84.115 17.5467 84.115 16.44C84.115 15.3333 84.3417 14.3533 84.795 13.5C85.2617 12.6467 85.8883 11.9867 86.675 11.52C87.475 11.04 88.355 10.8 89.315 10.8ZM93.135 16.48C93.135 15.72 92.975 15.06 92.655 14.5C92.3483 13.94 91.9417 13.5133 91.435 13.22C90.9283 12.9267 90.3817 12.78 89.795 12.78C89.2083 12.78 88.6617 12.9267 88.155 13.22C87.6483 13.5 87.235 13.92 86.915 14.48C86.6083 15.0267 86.455 15.68 86.455 16.44C86.455 17.2 86.6083 17.8667 86.915 18.44C87.235 19.0133 87.6483 19.4533 88.155 19.76C88.675 20.0533 89.2217 20.2 89.795 20.2C90.3817 20.2 90.9283 20.0533 91.435 19.76C91.9417 19.4667 92.3483 19.04 92.655 18.48C92.975 17.9067 93.135 17.24 93.135 16.48ZM104.13 10.8C104.97 10.8 105.716 10.98 106.37 11.34C107.036 11.7 107.556 12.2333 107.93 12.94C108.316 13.6467 108.51 14.5 108.51 15.5V22H106.25V15.84C106.25 14.8533 106.003 14.1 105.51 13.58C105.016 13.0467 104.343 12.78 103.49 12.78C102.636 12.78 101.956 13.0467 101.45 13.58C100.956 14.1 100.71 14.8533 100.71 15.84V22H98.4297V7.2H100.71V12.26C101.096 11.7933 101.583 11.4333 102.17 11.18C102.77 10.9267 103.423 10.8 104.13 10.8ZM127.373 24.52L124.933 21.88C124.333 22.0533 123.673 22.14 122.953 22.14C121.66 22.14 120.467 21.84 119.373 21.24C118.293 20.6267 117.433 19.78 116.793 18.7C116.167 17.6067 115.853 16.38 115.853 15.02C115.853 13.66 116.167 12.44 116.793 11.36C117.433 10.28 118.293 9.44 119.373 8.84C120.467 8.22667 121.66 7.92 122.953 7.92C124.26 7.92 125.453 8.22667 126.533 8.84C127.627 9.44 128.487 10.28 129.113 11.36C129.74 12.44 130.053 13.66 130.053 15.02C130.053 16.3 129.773 17.46 129.213 18.5C128.667 19.5267 127.907 20.3533 126.933 20.98L130.273 24.52H127.373ZM118.193 15.02C118.193 16.0467 118.393 16.9533 118.793 17.74C119.207 18.5133 119.773 19.1133 120.493 19.54C121.213 19.9533 122.033 20.16 122.953 20.16C123.873 20.16 124.693 19.9533 125.413 19.54C126.133 19.1133 126.693 18.5133 127.093 17.74C127.507 16.9533 127.713 16.0467 127.713 15.02C127.713 13.9933 127.507 13.0933 127.093 12.32C126.693 11.5467 126.133 10.9533 125.413 10.54C124.693 10.1267 123.873 9.92 122.953 9.92C122.033 9.92 121.213 10.1267 120.493 10.54C119.773 10.9533 119.207 11.5467 118.793 12.32C118.393 13.0933 118.193 13.9933 118.193 15.02ZM142.335 10.98V22H140.055V20.7C139.695 21.1533 139.222 21.5133 138.635 21.78C138.062 22.0333 137.449 22.16 136.795 22.16C135.929 22.16 135.149 21.98 134.455 21.62C133.775 21.26 133.235 20.7267 132.835 20.02C132.449 19.3133 132.255 18.46 132.255 17.46V10.98H134.515V17.12C134.515 18.1067 134.762 18.8667 135.255 19.4C135.749 19.92 136.422 20.18 137.275 20.18C138.129 20.18 138.802 19.92 139.295 19.4C139.802 18.8667 140.055 18.1067 140.055 17.12V10.98H142.335ZM144.584 16.44C144.584 15.3333 144.81 14.3533 145.264 13.5C145.73 12.6467 146.357 11.9867 147.144 11.52C147.944 11.04 148.824 10.8 149.784 10.8C150.65 10.8 151.404 10.9733 152.044 11.32C152.697 11.6533 153.217 12.0733 153.604 12.58V10.98H155.904V22H153.604V20.36C153.217 20.88 152.69 21.3133 152.024 21.66C151.357 22.0067 150.597 22.18 149.744 22.18C148.797 22.18 147.93 21.94 147.144 21.46C146.357 20.9667 145.73 20.2867 145.264 19.42C144.81 18.54 144.584 17.5467 144.584 16.44ZM153.604 16.48C153.604 15.72 153.444 15.06 153.124 14.5C152.817 13.94 152.41 13.5133 151.904 13.22C151.397 12.9267 150.85 12.78 150.264 12.78C149.677 12.78 149.13 12.9267 148.624 13.22C148.117 13.5 147.704 13.92 147.384 14.48C147.077 15.0267 146.924 15.68 146.924 16.44C146.924 17.2 147.077 17.8667 147.384 18.44C147.704 19.0133 148.117 19.4533 148.624 19.76C149.144 20.0533 149.69 20.2 150.264 20.2C150.85 20.2 151.397 20.0533 151.904 19.76C152.41 19.4667 152.817 19.04 153.124 18.48C153.444 17.9067 153.604 17.24 153.604 16.48ZM161.178 7.2V22H158.898V7.2H161.178ZM165.332 9.52C164.919 9.52 164.572 9.38 164.292 9.1C164.012 8.82 163.872 8.47333 163.872 8.06C163.872 7.64667 164.012 7.3 164.292 7.02C164.572 6.74 164.919 6.6 165.332 6.6C165.732 6.6 166.072 6.74 166.352 7.02C166.632 7.3 166.772 7.64667 166.772 8.06C166.772 8.47333 166.632 8.82 166.352 9.1C166.072 9.38 165.732 9.52 165.332 9.52ZM166.452 10.98V22H164.172V10.98H166.452ZM172.105 12.84V18.94C172.105 19.3533 172.199 19.6533 172.385 19.84C172.585 20.0133 172.919 20.1 173.385 20.1H174.785V22H172.985C171.959 22 171.172 21.76 170.625 21.28C170.079 20.8 169.805 20.02 169.805 18.94V12.84H168.505V10.98H169.805V8.24H172.105V10.98H174.785V12.84H172.105ZM186.807 10.98L180.047 27.18H177.687L179.927 21.82L175.587 10.98H178.127L181.227 19.38L184.447 10.98H186.807Z" fill="#484848"/>
<path d="M64.688 44.6C64.688 43.6933 64.8693 42.904 65.232 42.232C65.5947 41.5493 66.096 41.0213 66.736 40.648C67.3867 40.2747 68.128 40.088 68.96 40.088C70.0373 40.088 70.9227 40.3493 71.616 40.872C72.32 41.3947 72.784 42.12 73.008 43.048H71.44C71.2907 42.5147 70.9973 42.0933 70.56 41.784C70.1333 41.4747 69.6 41.32 68.96 41.32C68.128 41.32 67.456 41.608 66.944 42.184C66.432 42.7493 66.176 43.5547 66.176 44.6C66.176 45.656 66.432 46.472 66.944 47.048C67.456 47.624 68.128 47.912 68.96 47.912C69.6 47.912 70.1333 47.7627 70.56 47.464C70.9867 47.1653 71.28 46.7387 71.44 46.184H73.008C72.7733 47.08 72.304 47.8 71.6 48.344C70.896 48.8773 70.016 49.144 68.96 49.144C68.128 49.144 67.3867 48.9573 66.736 48.584C66.096 48.2107 65.5947 47.6827 65.232 47C64.8693 46.3173 64.688 45.5173 64.688 44.6ZM76.4068 41.656C76.6628 41.1547 77.0254 40.7653 77.4948 40.488C77.9748 40.2107 78.5561 40.072 79.2388 40.072V41.576H78.8548C77.2228 41.576 76.4068 42.4613 76.4068 44.232V49H74.9508V40.232H76.4068V41.656ZM80.3755 44.584C80.3755 43.688 80.5568 42.904 80.9195 42.232C81.2822 41.5493 81.7782 41.0213 82.4075 40.648C83.0475 40.2747 83.7568 40.088 84.5355 40.088C85.3035 40.088 85.9702 40.2533 86.5355 40.584C87.1008 40.9147 87.5222 41.3307 87.7995 41.832V40.232H89.2715V49H87.7995V47.368C87.5115 47.88 87.0795 48.3067 86.5035 48.648C85.9382 48.9787 85.2768 49.144 84.5195 49.144C83.7408 49.144 83.0368 48.952 82.4075 48.568C81.7782 48.184 81.2822 47.6453 80.9195 46.952C80.5568 46.2587 80.3755 45.4693 80.3755 44.584ZM87.7995 44.6C87.7995 43.9387 87.6662 43.3627 87.3995 42.872C87.1328 42.3813 86.7702 42.008 86.3115 41.752C85.8635 41.4853 85.3675 41.352 84.8235 41.352C84.2795 41.352 83.7835 41.48 83.3355 41.736C82.8875 41.992 82.5302 42.3653 82.2635 42.856C81.9968 43.3467 81.8635 43.9227 81.8635 44.584C81.8635 45.256 81.9968 45.8427 82.2635 46.344C82.5302 46.8347 82.8875 47.2133 83.3355 47.48C83.7835 47.736 84.2795 47.864 84.8235 47.864C85.3675 47.864 85.8635 47.736 86.3115 47.48C86.7702 47.2133 87.1328 46.8347 87.3995 46.344C87.6662 45.8427 87.7995 45.2613 87.7995 44.6ZM95.3 41.432H93.46V49H92.004V41.432H90.868V40.232H92.004V39.608C92.004 38.6267 92.2547 37.912 92.756 37.464C93.268 37.0053 94.084 36.776 95.204 36.776V37.992C94.564 37.992 94.1107 38.12 93.844 38.376C93.588 38.6213 93.46 39.032 93.46 39.608V40.232H95.3V41.432ZM98.7736 41.432V46.6C98.7736 47.0267 98.8643 47.3307 99.0456 47.512C99.227 47.6827 99.5416 47.768 99.9896 47.768H101.062V49H99.7496C98.939 49 98.331 48.8133 97.9256 48.44C97.5203 48.0667 97.3176 47.4533 97.3176 46.6V41.432H96.1816V40.232H97.3176V38.024H98.7736V40.232H101.062V41.432H98.7736ZM110.826 44.28C110.826 44.5573 110.81 44.8507 110.778 45.16H103.77C103.823 46.024 104.116 46.7013 104.65 47.192C105.194 47.672 105.85 47.912 106.618 47.912C107.247 47.912 107.77 47.768 108.186 47.48C108.612 47.1813 108.911 46.7867 109.082 46.296H110.65C110.415 47.1387 109.946 47.8267 109.242 48.36C108.538 48.8827 107.663 49.144 106.618 49.144C105.786 49.144 105.039 48.9573 104.378 48.584C103.727 48.2107 103.215 47.6827 102.842 47C102.468 46.3067 102.282 45.5067 102.282 44.6C102.282 43.6933 102.463 42.8987 102.826 42.216C103.188 41.5333 103.695 41.0107 104.346 40.648C105.007 40.2747 105.764 40.088 106.618 40.088C107.45 40.088 108.186 40.2693 108.826 40.632C109.466 40.9947 109.956 41.496 110.298 42.136C110.65 42.7653 110.826 43.48 110.826 44.28ZM109.322 43.976C109.322 43.4213 109.199 42.9467 108.954 42.552C108.708 42.1467 108.372 41.8427 107.946 41.64C107.53 41.4267 107.066 41.32 106.554 41.32C105.818 41.32 105.188 41.5547 104.666 42.024C104.154 42.4933 103.86 43.144 103.786 43.976H109.322ZM112.204 44.584C112.204 43.688 112.385 42.904 112.748 42.232C113.11 41.5493 113.606 41.0213 114.236 40.648C114.876 40.2747 115.59 40.088 116.38 40.088C117.062 40.088 117.697 40.248 118.284 40.568C118.87 40.8773 119.318 41.288 119.628 41.8V37.16H121.1V49H119.628V47.352C119.34 47.8747 118.913 48.3067 118.348 48.648C117.782 48.9787 117.121 49.144 116.364 49.144C115.585 49.144 114.876 48.952 114.236 48.568C113.606 48.184 113.11 47.6453 112.748 46.952C112.385 46.2587 112.204 45.4693 112.204 44.584ZM119.628 44.6C119.628 43.9387 119.494 43.3627 119.228 42.872C118.961 42.3813 118.598 42.008 118.14 41.752C117.692 41.4853 117.196 41.352 116.652 41.352C116.108 41.352 115.612 41.48 115.164 41.736C114.716 41.992 114.358 42.3653 114.092 42.856C113.825 43.3467 113.692 43.9227 113.692 44.584C113.692 45.256 113.825 45.8427 114.092 46.344C114.358 46.8347 114.716 47.2133 115.164 47.48C115.612 47.736 116.108 47.864 116.652 47.864C117.196 47.864 117.692 47.736 118.14 47.48C118.598 47.2133 118.961 46.8347 119.228 46.344C119.494 45.8427 119.628 45.2613 119.628 44.6ZM131.394 41.432H129.554V49H128.098V41.432H126.962V40.232H128.098V39.608C128.098 38.6267 128.348 37.912 128.85 37.464C129.362 37.0053 130.178 36.776 131.298 36.776V37.992C130.658 37.992 130.204 38.12 129.938 38.376C129.682 38.6213 129.554 39.032 129.554 39.608V40.232H131.394V41.432ZM134.547 41.656C134.803 41.1547 135.166 40.7653 135.635 40.488C136.115 40.2107 136.697 40.072 137.379 40.072V41.576H136.995C135.363 41.576 134.547 42.4613 134.547 44.232V49H133.091V40.232H134.547V41.656ZM142.884 49.144C142.063 49.144 141.316 48.9573 140.644 48.584C139.983 48.2107 139.46 47.6827 139.076 47C138.703 46.3067 138.516 45.5067 138.516 44.6C138.516 43.704 138.708 42.9147 139.092 42.232C139.487 41.5387 140.02 41.0107 140.692 40.648C141.364 40.2747 142.116 40.088 142.948 40.088C143.78 40.088 144.532 40.2747 145.204 40.648C145.876 41.0107 146.404 41.5333 146.788 42.216C147.183 42.8987 147.38 43.6933 147.38 44.6C147.38 45.5067 147.177 46.3067 146.772 47C146.377 47.6827 145.839 48.2107 145.156 48.584C144.473 48.9573 143.716 49.144 142.884 49.144ZM142.884 47.864C143.407 47.864 143.897 47.7413 144.356 47.496C144.815 47.2507 145.183 46.8827 145.46 46.392C145.748 45.9013 145.892 45.304 145.892 44.6C145.892 43.896 145.753 43.2987 145.476 42.808C145.199 42.3173 144.836 41.9547 144.388 41.72C143.94 41.4747 143.455 41.352 142.932 41.352C142.399 41.352 141.908 41.4747 141.46 41.72C141.023 41.9547 140.671 42.3173 140.404 42.808C140.137 43.2987 140.004 43.896 140.004 44.6C140.004 45.3147 140.132 45.9173 140.388 46.408C140.655 46.8987 141.007 47.2667 141.444 47.512C141.881 47.7467 142.361 47.864 142.884 47.864ZM159.839 40.072C160.521 40.072 161.129 40.216 161.663 40.504C162.196 40.7813 162.617 41.2027 162.927 41.768C163.236 42.3333 163.391 43.0213 163.391 43.832V49H161.951V44.04C161.951 43.1653 161.732 42.4987 161.295 42.04C160.868 41.5707 160.287 41.336 159.551 41.336C158.793 41.336 158.191 41.5813 157.743 42.072C157.295 42.552 157.071 43.2507 157.071 44.168V49H155.631V44.04C155.631 43.1653 155.412 42.4987 154.975 42.04C154.548 41.5707 153.967 41.336 153.231 41.336C152.473 41.336 151.871 41.5813 151.423 42.072C150.975 42.552 150.751 43.2507 150.751 44.168V49H149.295V40.232H150.751V41.496C151.039 41.0373 151.423 40.6853 151.903 40.44C152.393 40.1947 152.932 40.072 153.519 40.072C154.255 40.072 154.905 40.2373 155.471 40.568C156.036 40.8987 156.457 41.384 156.735 42.024C156.98 41.4053 157.385 40.9253 157.951 40.584C158.516 40.2427 159.145 40.072 159.839 40.072ZM171.821 41.432V46.6C171.821 47.0267 171.911 47.3307 172.093 47.512C172.274 47.6827 172.589 47.768 173.036 47.768H174.109V49H172.797C171.986 49 171.378 48.8133 170.973 48.44C170.567 48.0667 170.365 47.4533 170.365 46.6V41.432H169.229V40.232H170.365V38.024H171.821V40.232H174.109V41.432H171.821ZM179.697 49.144C178.875 49.144 178.129 48.9573 177.457 48.584C176.795 48.2107 176.273 47.6827 175.889 47C175.515 46.3067 175.329 45.5067 175.329 44.6C175.329 43.704 175.521 42.9147 175.905 42.232C176.299 41.5387 176.833 41.0107 177.505 40.648C178.177 40.2747 178.929 40.088 179.761 40.088C180.593 40.088 181.345 40.2747 182.017 40.648C182.689 41.0107 183.217 41.5333 183.601 42.216C183.995 42.8987 184.193 43.6933 184.193 44.6C184.193 45.5067 183.99 46.3067 183.585 47C183.19 47.6827 182.651 48.2107 181.969 48.584C181.286 48.9573 180.529 49.144 179.697 49.144ZM179.697 47.864C180.219 47.864 180.71 47.7413 181.169 47.496C181.627 47.2507 181.995 46.8827 182.273 46.392C182.561 45.9013 182.705 45.304 182.705 44.6C182.705 43.896 182.566 43.2987 182.289 42.808C182.011 42.3173 181.649 41.9547 181.201 41.72C180.753 41.4747 180.267 41.352 179.745 41.352C179.211 41.352 178.721 41.4747 178.273 41.72C177.835 41.9547 177.483 42.3173 177.217 42.808C176.95 43.2987 176.817 43.896 176.817 44.6C176.817 45.3147 176.945 45.9173 177.201 46.408C177.467 46.8987 177.819 47.2667 178.257 47.512C178.694 47.7467 179.174 47.864 179.697 47.864ZM187.563 41.848C187.851 41.3467 188.278 40.9307 188.843 40.6C189.419 40.2587 190.086 40.088 190.843 40.088C191.622 40.088 192.326 40.2747 192.955 40.648C193.595 41.0213 194.096 41.5493 194.459 42.232C194.822 42.904 195.003 43.688 195.003 44.584C195.003 45.4693 194.822 46.2587 194.459 46.952C194.096 47.6453 193.595 48.184 192.955 48.568C192.326 48.952 191.622 49.144 190.843 49.144C190.096 49.144 189.435 48.9787 188.859 48.648C188.294 48.3067 187.862 47.8853 187.563 47.384V53.16H186.107V40.232H187.563V41.848ZM193.515 44.584C193.515 43.9227 193.382 43.3467 193.115 42.856C192.848 42.3653 192.486 41.992 192.027 41.736C191.579 41.48 191.083 41.352 190.539 41.352C190.006 41.352 189.51 41.4853 189.051 41.752C188.603 42.008 188.24 42.3867 187.963 42.888C187.696 43.3787 187.563 43.9493 187.563 44.6C187.563 45.2613 187.696 45.8427 187.963 46.344C188.24 46.8347 188.603 47.2133 189.051 47.48C189.51 47.736 190.006 47.864 190.539 47.864C191.083 47.864 191.579 47.736 192.027 47.48C192.486 47.2133 192.848 46.8347 193.115 46.344C193.382 45.8427 193.515 45.256 193.515 44.584ZM211.729 40.072C212.412 40.072 213.02 40.216 213.553 40.504C214.086 40.7813 214.508 41.2027 214.817 41.768C215.126 42.3333 215.281 43.0213 215.281 43.832V49H213.841V44.04C213.841 43.1653 213.622 42.4987 213.185 42.04C212.758 41.5707 212.177 41.336 211.441 41.336C210.684 41.336 210.081 41.5813 209.633 42.072C209.185 42.552 208.961 43.2507 208.961 44.168V49H207.521V44.04C207.521 43.1653 207.302 42.4987 206.865 42.04C206.438 41.5707 205.857 41.336 205.121 41.336C204.364 41.336 203.761 41.5813 203.313 42.072C202.865 42.552 202.641 43.2507 202.641 44.168V49H201.185V40.232H202.641V41.496C202.929 41.0373 203.313 40.6853 203.793 40.44C204.284 40.1947 204.822 40.072 205.409 40.072C206.145 40.072 206.796 40.2373 207.361 40.568C207.926 40.8987 208.348 41.384 208.625 42.024C208.87 41.4053 209.276 40.9253 209.841 40.584C210.406 40.2427 211.036 40.072 211.729 40.072ZM217.126 44.584C217.126 43.688 217.307 42.904 217.67 42.232C218.032 41.5493 218.528 41.0213 219.158 40.648C219.798 40.2747 220.507 40.088 221.286 40.088C222.054 40.088 222.72 40.2533 223.286 40.584C223.851 40.9147 224.272 41.3307 224.55 41.832V40.232H226.022V49H224.55V47.368C224.262 47.88 223.83 48.3067 223.254 48.648C222.688 48.9787 222.027 49.144 221.27 49.144C220.491 49.144 219.787 48.952 219.158 48.568C218.528 48.184 218.032 47.6453 217.67 46.952C217.307 46.2587 217.126 45.4693 217.126 44.584ZM224.55 44.6C224.55 43.9387 224.416 43.3627 224.15 42.872C223.883 42.3813 223.52 42.008 223.062 41.752C222.614 41.4853 222.118 41.352 221.574 41.352C221.03 41.352 220.534 41.48 220.086 41.736C219.638 41.992 219.28 42.3653 219.014 42.856C218.747 43.3467 218.614 43.9227 218.614 44.584C218.614 45.256 218.747 45.8427 219.014 46.344C219.28 46.8347 219.638 47.2133 220.086 47.48C220.534 47.736 221.03 47.864 221.574 47.864C222.118 47.864 222.614 47.736 223.062 47.48C223.52 47.2133 223.883 46.8347 224.15 46.344C224.416 45.8427 224.55 45.2613 224.55 44.6ZM230.258 41.432V46.6C230.258 47.0267 230.349 47.3307 230.53 47.512C230.711 47.6827 231.026 47.768 231.474 47.768H232.546V49H231.234C230.423 49 229.815 48.8133 229.41 48.44C229.005 48.0667 228.802 47.4533 228.802 46.6V41.432H227.666V40.232H228.802V38.024H230.258V40.232H232.546V41.432H230.258ZM242.31 44.28C242.31 44.5573 242.294 44.8507 242.262 45.16H235.254C235.307 46.024 235.601 46.7013 236.134 47.192C236.678 47.672 237.334 47.912 238.102 47.912C238.731 47.912 239.254 47.768 239.67 47.48C240.097 47.1813 240.395 46.7867 240.566 46.296H242.134C241.899 47.1387 241.43 47.8267 240.726 48.36C240.022 48.8827 239.147 49.144 238.102 49.144C237.27 49.144 236.523 48.9573 235.862 48.584C235.211 48.2107 234.699 47.6827 234.326 47C233.953 46.3067 233.766 45.5067 233.766 44.6C233.766 43.6933 233.947 42.8987 234.31 42.216C234.673 41.5333 235.179 41.0107 235.83 40.648C236.491 40.2747 237.249 40.088 238.102 40.088C238.934 40.088 239.67 40.2693 240.31 40.632C240.95 40.9947 241.441 41.496 241.782 42.136C242.134 42.7653 242.31 43.48 242.31 44.28ZM240.806 43.976C240.806 43.4213 240.683 42.9467 240.438 42.552C240.193 42.1467 239.857 41.8427 239.43 41.64C239.014 41.4267 238.55 41.32 238.038 41.32C237.302 41.32 236.673 41.5547 236.15 42.024C235.638 42.4933 235.345 43.144 235.27 43.976H240.806ZM245.688 41.656C245.944 41.1547 246.307 40.7653 246.776 40.488C247.256 40.2107 247.837 40.072 248.52 40.072V41.576H248.136C246.504 41.576 245.688 42.4613 245.688 44.232V49H244.232V40.232H245.688V41.656ZM250.953 38.808C250.675 38.808 250.441 38.712 250.249 38.52C250.057 38.328 249.961 38.0933 249.961 37.816C249.961 37.5387 250.057 37.304 250.249 37.112C250.441 36.92 250.675 36.824 250.953 36.824C251.219 36.824 251.443 36.92 251.625 37.112C251.817 37.304 251.913 37.5387 251.913 37.816C251.913 38.0933 251.817 38.328 251.625 38.52C251.443 38.712 251.219 38.808 250.953 38.808ZM251.657 40.232V49H250.201V40.232H251.657ZM253.594 44.584C253.594 43.688 253.776 42.904 254.138 42.232C254.501 41.5493 254.997 41.0213 255.626 40.648C256.266 40.2747 256.976 40.088 257.754 40.088C258.522 40.088 259.189 40.2533 259.754 40.584C260.32 40.9147 260.741 41.3307 261.018 41.832V40.232H262.49V49H261.018V47.368C260.73 47.88 260.298 48.3067 259.722 48.648C259.157 48.9787 258.496 49.144 257.738 49.144C256.96 49.144 256.256 48.952 255.626 48.568C254.997 48.184 254.501 47.6453 254.138 46.952C253.776 46.2587 253.594 45.4693 253.594 44.584ZM261.018 44.6C261.018 43.9387 260.885 43.3627 260.618 42.872C260.352 42.3813 259.989 42.008 259.53 41.752C259.082 41.4853 258.586 41.352 258.042 41.352C257.498 41.352 257.002 41.48 256.554 41.736C256.106 41.992 255.749 42.3653 255.482 42.856C255.216 43.3467 255.082 43.9227 255.082 44.584C255.082 45.256 255.216 45.8427 255.482 46.344C255.749 46.8347 256.106 47.2133 256.554 47.48C257.002 47.736 257.498 47.864 258.042 47.864C258.586 47.864 259.082 47.736 259.53 47.48C259.989 47.2133 260.352 46.8347 260.618 46.344C260.885 45.8427 261.018 45.2613 261.018 44.6ZM266.407 37.16V49H264.951V37.16H266.407ZM271.992 49.144C271.32 49.144 270.718 49.032 270.184 48.808C269.651 48.5733 269.23 48.2533 268.92 47.848C268.611 47.432 268.44 46.9573 268.408 46.424H269.912C269.955 46.8613 270.158 47.2187 270.52 47.496C270.894 47.7733 271.379 47.912 271.976 47.912C272.531 47.912 272.968 47.7893 273.288 47.544C273.608 47.2987 273.768 46.9893 273.768 46.616C273.768 46.232 273.598 45.9493 273.256 45.768C272.915 45.576 272.387 45.3893 271.672 45.208C271.022 45.0373 270.488 44.8667 270.072 44.696C269.667 44.5147 269.315 44.2533 269.016 43.912C268.728 43.56 268.584 43.1013 268.584 42.536C268.584 42.088 268.718 41.6773 268.984 41.304C269.251 40.9307 269.63 40.6373 270.12 40.424C270.611 40.2 271.171 40.088 271.8 40.088C272.771 40.088 273.555 40.3333 274.152 40.824C274.75 41.3147 275.07 41.9867 275.112 42.84H273.656C273.624 42.3813 273.438 42.0133 273.096 41.736C272.766 41.4587 272.318 41.32 271.752 41.32C271.23 41.32 270.814 41.432 270.504 41.656C270.195 41.88 270.04 42.1733 270.04 42.536C270.04 42.824 270.131 43.064 270.312 43.256C270.504 43.4373 270.739 43.5867 271.016 43.704C271.304 43.8107 271.699 43.9333 272.2 44.072C272.83 44.2427 273.342 44.4133 273.736 44.584C274.131 44.744 274.467 44.9893 274.744 45.32C275.032 45.6507 275.182 46.0827 275.192 46.616C275.192 47.096 275.059 47.528 274.792 47.912C274.526 48.296 274.147 48.6 273.656 48.824C273.176 49.0373 272.622 49.144 271.992 49.144Z" fill="#484848"/>
<path d="M17.207 18.3743L16.077 24.9632C16.0175 25.2726 16.0468 25.5925 16.1615 25.8858C16.2761 26.179 16.4713 26.4335 16.7244 26.6196C16.9733 26.8068 17.2694 26.9204 17.5792 26.9475C17.889 26.9746 18.2001 26.9142 18.4775 26.773L24.5858 23.7055L30.3764 26.7362C30.6528 26.8859 30.9656 26.9545 31.279 26.934C31.5924 26.9136 31.8937 26.805 32.1486 26.6208C32.4035 26.4365 32.6016 26.1839 32.7202 25.8918C32.8389 25.5998 32.8734 25.2801 32.8197 24.9693L31.6897 18.4049L36.4419 13.7362C36.6653 13.5183 36.8235 13.2419 36.8985 12.9383C36.9736 12.6347 36.9624 12.3161 36.8664 12.0185C36.7704 11.721 36.5934 11.4564 36.3553 11.2547C36.1173 11.053 35.8278 10.9223 35.5196 10.8773L28.8921 9.90802L25.9357 3.9203C25.7956 3.64144 25.5806 3.40748 25.3151 3.24487C25.0496 3.08225 24.7441 2.99746 24.4331 3.00006C24.1231 2.9986 23.8189 3.08394 23.5545 3.24649C23.2902 3.40904 23.0762 3.64238 22.9365 3.9203L19.974 9.90802L13.3466 10.8651C13.0353 10.9073 12.7423 11.0369 12.5012 11.239C12.2601 11.4411 12.0807 11.7075 11.9837 12.0075C11.8866 12.3075 11.8759 12.6289 11.9528 12.9348C12.0297 13.2406 12.191 13.5184 12.4181 13.7362L17.207 18.3743ZM20.707 11.6626C20.8508 11.6385 20.9867 11.5803 21.1036 11.4928C21.2205 11.4053 21.3149 11.291 21.3789 11.1596L24.4331 5.02459L27.4872 11.1596C27.553 11.2933 27.6502 11.409 27.7705 11.4967C27.8907 11.5843 28.0304 11.6413 28.1774 11.6626L34.9454 12.6442L30.0588 17.3927C29.9513 17.4964 29.8706 17.625 29.8237 17.7672C29.7769 17.9094 29.7653 18.0609 29.79 18.2086L30.9445 24.9264L25.0256 21.8282C24.8961 21.7615 24.7527 21.7267 24.6072 21.7267C24.4616 21.7267 24.3182 21.7615 24.1887 21.8282L17.9583 24.9693L19.1189 18.2209C19.1392 18.0736 19.1238 17.9236 19.0738 17.7836C19.0238 17.6436 18.9407 17.5179 18.8318 17.4172L13.9452 12.6688L20.707 11.6626Z" fill="black"/>
<path d="M50.0878 30.3007C49.781 29.9447 49.4072 29.6531 48.9879 29.4425C48.5687 29.232 48.1121 29.1066 47.6445 29.0737C47.177 29.0414 46.7077 29.1041 46.2649 29.258C45.822 29.4119 45.4145 29.6538 45.0668 29.9694L36.6068 37.6013C36.5848 37.4317 36.5522 37.2637 36.5091 37.0982C36.367 36.5666 36.1122 36.0722 35.7622 35.6486C35.4121 35.2251 34.9752 34.8825 34.4812 34.6442C32.9113 33.9817 30.7307 34.2884 28.6233 34.5951C27.3908 34.8375 26.1319 34.9159 24.879 34.8283C24.3214 34.6878 23.7822 34.4818 23.2725 34.2148C21.6721 33.497 19.4793 32.5154 15.3989 33.4172C13.2923 33.9637 11.3573 35.0357 9.77323 36.5338V34.2884C9.77323 34.0443 9.6767 33.8103 9.50487 33.6377C9.33304 33.4651 9.09999 33.3682 8.85699 33.3682H0.91624C0.673238 33.3682 0.440189 33.4651 0.26836 33.6377C0.0965321 33.8103 0 34.0443 0 34.2884V52.0798C0 52.3238 0.0965321 52.5579 0.26836 52.7305C0.440189 52.9031 0.673238 53 0.91624 53H8.85699C9.09999 53 9.33304 52.9031 9.50487 52.7305C9.6767 52.5579 9.77323 52.3238 9.77323 52.0798V50.8037C10.9949 51.092 16.5412 52.3865 20.6398 52.3865C24.9156 52.3865 30.1443 51.4049 33.3634 50C39.2945 47.4172 49.0616 36.27 49.8557 35.3681C50.5437 34.7201 50.9528 33.8281 50.9962 32.8817C51.0395 31.9354 50.7136 31.0094 50.0878 30.3007ZM7.94075 51.1595H1.83248V35.2086H7.94075V51.1595ZM48.5852 34.0369L48.4996 34.1228C48.3958 34.2393 38.305 45.8467 32.6182 48.319C29.6251 49.6258 24.6896 50.546 20.6398 50.546C16.364 50.546 10.0542 48.9755 9.99313 48.9632C9.9201 48.9543 9.84626 48.9543 9.77323 48.9632V39.1473C10.439 38.3804 12.7907 35.8896 15.796 35.227C19.2899 34.4602 21.0124 35.227 22.5151 35.908C23.1633 36.2287 23.8486 36.4678 24.5552 36.6197C25.9978 36.7563 27.4525 36.6819 28.8738 36.3988C30.6513 36.1534 32.667 35.8712 33.7604 36.3313C33.9955 36.4671 34.201 36.6489 34.3647 36.866C34.5284 37.0831 34.6469 37.3311 34.7133 37.5951C34.802 37.9573 34.8034 38.3355 34.7174 38.6982C34.6313 39.061 34.4603 39.398 34.2185 39.681C32.8258 41.5583 24.3537 44.3681 20.8781 44.0921C20.6351 44.0734 20.3946 44.1524 20.2096 44.3117C20.0246 44.4711 19.9102 44.6977 19.8916 44.9418C19.8729 45.1858 19.9516 45.4273 20.1103 45.6131C20.2689 45.7989 20.4946 45.9138 20.7376 45.9326C20.9269 45.9326 21.1346 45.9326 21.3484 45.9326C25.1416 45.9326 32.386 43.6872 35.037 41.4418L35.1042 41.4049L46.2457 31.3436C46.5805 31.0441 47.0197 30.8897 47.4674 30.9142C47.7016 30.9284 47.9306 30.9901 48.1406 31.0956C48.3505 31.201 48.5371 31.348 48.689 31.5277C49.0027 31.8761 49.1676 32.3343 49.1482 32.8036C49.1287 33.2729 48.9266 33.7158 48.5852 34.0369Z" fill="black"/>
</svg>
