<svg width="213" height="56" viewBox="0 0 213 56" fill="none" xmlns="http://www.w3.org/2000/svg">
<path d="M65.46 18.9C66.74 17.7933 67.7467 16.8867 68.48 16.18C69.2267 15.46 69.8467 14.7133 70.34 13.94C70.8333 13.1667 71.08 12.3933 71.08 11.62C71.08 10.82 70.8867 10.1933 70.5 9.74C70.1267 9.28667 69.5333 9.06 68.72 9.06C67.9333 9.06 67.32 9.31333 66.88 9.82C66.4533 10.3133 66.2267 10.98 66.2 11.82H64C64.04 10.3 64.4933 9.14 65.36 8.34C66.24 7.52667 67.3533 7.12 68.7 7.12C70.1533 7.12 71.2867 7.52 72.1 8.32C72.9267 9.12 73.34 10.1867 73.34 11.52C73.34 12.48 73.0933 13.4067 72.6 14.3C72.12 15.18 71.54 15.9733 70.86 16.68C70.1933 17.3733 69.34 18.18 68.3 19.1L67.4 19.9H73.74V21.8H64.02V20.14L65.46 18.9ZM75.463 18.96V17.24L82.183 7.6H84.943V16.98H86.803V18.96H84.943V22H82.703V18.96H75.463ZM82.803 9.92L78.083 16.98H82.803V9.92ZM101.588 3.12L96.1475 25.5H93.9075L99.3275 3.12H101.588ZM118.596 9.18L113.036 22H110.736L116.356 9.42H108.956V7.48H118.596V9.18ZM130.623 22.14C129.69 22.14 128.85 21.98 128.103 21.66C127.356 21.3267 126.77 20.86 126.343 20.26C125.916 19.66 125.703 18.96 125.703 18.16H128.143C128.196 18.76 128.43 19.2533 128.843 19.64C129.27 20.0267 129.863 20.22 130.623 20.22C131.41 20.22 132.023 20.0333 132.463 19.66C132.903 19.2733 133.123 18.78 133.123 18.18C133.123 17.7133 132.983 17.3333 132.703 17.04C132.436 16.7467 132.096 16.52 131.683 16.36C131.283 16.2 130.723 16.0267 130.003 15.84C129.096 15.6 128.356 15.36 127.783 15.12C127.223 14.8667 126.743 14.48 126.343 13.96C125.943 13.44 125.743 12.7467 125.743 11.88C125.743 11.08 125.943 10.38 126.343 9.78C126.743 9.18 127.303 8.72 128.023 8.4C128.743 8.08 129.576 7.92 130.523 7.92C131.87 7.92 132.97 8.26 133.823 8.94C134.69 9.60667 135.17 10.5267 135.263 11.7H132.743C132.703 11.1933 132.463 10.76 132.023 10.4C131.583 10.04 131.003 9.86 130.283 9.86C129.63 9.86 129.096 10.0267 128.683 10.36C128.27 10.6933 128.063 11.1733 128.063 11.8C128.063 12.2267 128.19 12.58 128.443 12.86C128.71 13.1267 129.043 13.34 129.443 13.5C129.843 13.66 130.39 13.8333 131.083 14.02C132.003 14.2733 132.75 14.5267 133.323 14.78C133.91 15.0333 134.403 15.4267 134.803 15.96C135.216 16.48 135.423 17.18 135.423 18.06C135.423 18.7667 135.23 19.4333 134.843 20.06C134.47 20.6867 133.916 21.1933 133.183 21.58C132.463 21.9533 131.61 22.14 130.623 22.14ZM148.093 10.98V22H145.813V20.7C145.453 21.1533 144.98 21.5133 144.393 21.78C143.82 22.0333 143.207 22.16 142.553 22.16C141.687 22.16 140.907 21.98 140.213 21.62C139.533 21.26 138.993 20.7267 138.593 20.02C138.207 19.3133 138.013 18.46 138.013 17.46V10.98H140.273V17.12C140.273 18.1067 140.52 18.8667 141.013 19.4C141.507 19.92 142.18 20.18 143.033 20.18C143.887 20.18 144.56 19.92 145.053 19.4C145.56 18.8667 145.813 18.1067 145.813 17.12V10.98H148.093ZM153.382 12.6C153.768 12.0933 154.295 11.6667 154.962 11.32C155.628 10.9733 156.382 10.8 157.222 10.8C158.182 10.8 159.055 11.04 159.842 11.52C160.642 11.9867 161.268 12.6467 161.722 13.5C162.175 14.3533 162.402 15.3333 162.402 16.44C162.402 17.5467 162.175 18.54 161.722 19.42C161.268 20.2867 160.642 20.9667 159.842 21.46C159.055 21.94 158.182 22.18 157.222 22.18C156.382 22.18 155.635 22.0133 154.982 21.68C154.328 21.3333 153.795 20.9067 153.382 20.4V27.24H151.102V10.98H153.382V12.6ZM160.082 16.44C160.082 15.68 159.922 15.0267 159.602 14.48C159.295 13.92 158.882 13.5 158.362 13.22C157.855 12.9267 157.308 12.78 156.722 12.78C156.148 12.78 155.602 12.9267 155.082 13.22C154.575 13.5133 154.162 13.94 153.842 14.5C153.535 15.06 153.382 15.72 153.382 16.48C153.382 17.24 153.535 17.9067 153.842 18.48C154.162 19.04 154.575 19.4667 155.082 19.76C155.602 20.0533 156.148 20.2 156.722 20.2C157.308 20.2 157.855 20.0533 158.362 19.76C158.882 19.4533 159.295 19.0133 159.602 18.44C159.922 17.8667 160.082 17.2 160.082 16.44ZM166.936 12.6C167.323 12.0933 167.85 11.6667 168.516 11.32C169.183 10.9733 169.936 10.8 170.776 10.8C171.736 10.8 172.61 11.04 173.396 11.52C174.196 11.9867 174.823 12.6467 175.276 13.5C175.73 14.3533 175.956 15.3333 175.956 16.44C175.956 17.5467 175.73 18.54 175.276 19.42C174.823 20.2867 174.196 20.9667 173.396 21.46C172.61 21.94 171.736 22.18 170.776 22.18C169.936 22.18 169.19 22.0133 168.536 21.68C167.883 21.3333 167.35 20.9067 166.936 20.4V27.24H164.656V10.98H166.936V12.6ZM173.636 16.44C173.636 15.68 173.476 15.0267 173.156 14.48C172.85 13.92 172.436 13.5 171.916 13.22C171.41 12.9267 170.863 12.78 170.276 12.78C169.703 12.78 169.156 12.9267 168.636 13.22C168.13 13.5133 167.716 13.94 167.396 14.5C167.09 15.06 166.936 15.72 166.936 16.48C166.936 17.24 167.09 17.9067 167.396 18.48C167.716 19.04 168.13 19.4667 168.636 19.76C169.156 20.0533 169.703 20.2 170.276 20.2C170.863 20.2 171.41 20.0533 171.916 19.76C172.436 19.4533 172.85 19.0133 173.156 18.44C173.476 17.8667 173.636 17.2 173.636 16.44ZM182.991 22.18C181.951 22.18 181.011 21.9467 180.171 21.48C179.331 21 178.671 20.3333 178.191 19.48C177.711 18.6133 177.471 17.6133 177.471 16.48C177.471 15.36 177.718 14.3667 178.211 13.5C178.704 12.6333 179.378 11.9667 180.231 11.5C181.084 11.0333 182.038 10.8 183.091 10.8C184.144 10.8 185.098 11.0333 185.951 11.5C186.804 11.9667 187.478 12.6333 187.971 13.5C188.464 14.3667 188.711 15.36 188.711 16.48C188.711 17.6 188.458 18.5933 187.951 19.46C187.444 20.3267 186.751 21 185.871 21.48C185.004 21.9467 184.044 22.18 182.991 22.18ZM182.991 20.2C183.578 20.2 184.124 20.06 184.631 19.78C185.151 19.5 185.571 19.08 185.891 18.52C186.211 17.96 186.371 17.28 186.371 16.48C186.371 15.68 186.218 15.0067 185.911 14.46C185.604 13.9 185.198 13.48 184.691 13.2C184.184 12.92 183.638 12.78 183.051 12.78C182.464 12.78 181.918 12.92 181.411 13.2C180.918 13.48 180.524 13.9 180.231 14.46C179.938 15.0067 179.791 15.68 179.791 16.48C179.791 17.6667 180.091 18.5867 180.691 19.24C181.304 19.88 182.071 20.2 182.991 20.2ZM193.245 12.58C193.578 12.02 194.018 11.5867 194.565 11.28C195.125 10.96 195.785 10.8 196.545 10.8V13.16H195.965C195.072 13.16 194.392 13.3867 193.925 13.84C193.472 14.2933 193.245 15.08 193.245 16.2V22H190.965V10.98H193.245V12.58ZM201.301 12.84V18.94C201.301 19.3533 201.394 19.6533 201.581 19.84C201.781 20.0133 202.114 20.1 202.581 20.1H203.981V22H202.181C201.154 22 200.367 21.76 199.821 21.28C199.274 20.8 199.001 20.02 199.001 18.94V12.84H197.701V10.98H199.001V8.24H201.301V10.98H203.981V12.84H201.301Z" fill="#484848"/>
<path d="M67.704 37.848C68.92 37.848 69.9707 38.0773 70.856 38.536C71.752 38.984 72.4347 39.6293 72.904 40.472C73.384 41.3147 73.624 42.3067 73.624 43.448C73.624 44.5893 73.384 45.5813 72.904 46.424C72.4347 47.256 71.752 47.896 70.856 48.344C69.9707 48.7813 68.92 49 67.704 49H64.232V37.848H67.704ZM67.704 47.8C69.144 47.8 70.2427 47.4213 71 46.664C71.7573 45.896 72.136 44.824 72.136 43.448C72.136 42.0613 71.752 40.9787 70.984 40.2C70.2267 39.4213 69.1333 39.032 67.704 39.032H65.688V47.8H67.704ZM83.5445 44.28C83.5445 44.5573 83.5285 44.8507 83.4965 45.16H76.4885C76.5418 46.024 76.8352 46.7013 77.3685 47.192C77.9125 47.672 78.5685 47.912 79.3365 47.912C79.9658 47.912 80.4885 47.768 80.9045 47.48C81.3312 47.1813 81.6298 46.7867 81.8005 46.296H83.3685C83.1338 47.1387 82.6645 47.8267 81.9605 48.36C81.2565 48.8827 80.3818 49.144 79.3365 49.144C78.5045 49.144 77.7578 48.9573 77.0965 48.584C76.4458 48.2107 75.9338 47.6827 75.5605 47C75.1872 46.3067 75.0005 45.5067 75.0005 44.6C75.0005 43.6933 75.1818 42.8987 75.5445 42.216C75.9072 41.5333 76.4138 41.0107 77.0645 40.648C77.7258 40.2747 78.4832 40.088 79.3365 40.088C80.1685 40.088 80.9045 40.2693 81.5445 40.632C82.1845 40.9947 82.6752 41.496 83.0165 42.136C83.3685 42.7653 83.5445 43.48 83.5445 44.28ZM82.0405 43.976C82.0405 43.4213 81.9178 42.9467 81.6725 42.552C81.4272 42.1467 81.0912 41.8427 80.6645 41.64C80.2485 41.4267 79.7845 41.32 79.2725 41.32C78.5365 41.32 77.9072 41.5547 77.3845 42.024C76.8725 42.4933 76.5792 43.144 76.5045 43.976H82.0405ZM84.9224 44.584C84.9224 43.688 85.1037 42.904 85.4664 42.232C85.829 41.5493 86.325 41.0213 86.9544 40.648C87.5944 40.2747 88.309 40.088 89.0984 40.088C89.781 40.088 90.4157 40.248 91.0024 40.568C91.589 40.8773 92.037 41.288 92.3464 41.8V37.16H93.8184V49H92.3464V47.352C92.0584 47.8747 91.6317 48.3067 91.0664 48.648C90.501 48.9787 89.8397 49.144 89.0824 49.144C88.3037 49.144 87.5944 48.952 86.9544 48.568C86.325 48.184 85.829 47.6453 85.4664 46.952C85.1037 46.2587 84.9224 45.4693 84.9224 44.584ZM92.3464 44.6C92.3464 43.9387 92.213 43.3627 91.9464 42.872C91.6797 42.3813 91.317 42.008 90.8584 41.752C90.4104 41.4853 89.9144 41.352 89.3704 41.352C88.8264 41.352 88.3304 41.48 87.8824 41.736C87.4344 41.992 87.077 42.3653 86.8104 42.856C86.5437 43.3467 86.4104 43.9227 86.4104 44.584C86.4104 45.256 86.5437 45.8427 86.8104 46.344C87.077 46.8347 87.4344 47.2133 87.8824 47.48C88.3304 47.736 88.8264 47.864 89.3704 47.864C89.9144 47.864 90.4104 47.736 90.8584 47.48C91.317 47.2133 91.6797 46.8347 91.9464 46.344C92.213 45.8427 92.3464 45.2613 92.3464 44.6ZM97.0309 38.808C96.7535 38.808 96.5189 38.712 96.3269 38.52C96.1349 38.328 96.0389 38.0933 96.0389 37.816C96.0389 37.5387 96.1349 37.304 96.3269 37.112C96.5189 36.92 96.7535 36.824 97.0309 36.824C97.2975 36.824 97.5215 36.92 97.7029 37.112C97.8949 37.304 97.9909 37.5387 97.9909 37.816C97.9909 38.0933 97.8949 38.328 97.7029 38.52C97.5215 38.712 97.2975 38.808 97.0309 38.808ZM97.7349 40.232V49H96.2789V40.232H97.7349ZM99.6724 44.6C99.6724 43.6933 99.8537 42.904 100.216 42.232C100.579 41.5493 101.08 41.0213 101.72 40.648C102.371 40.2747 103.112 40.088 103.944 40.088C105.022 40.088 105.907 40.3493 106.6 40.872C107.304 41.3947 107.768 42.12 107.992 43.048H106.424C106.275 42.5147 105.982 42.0933 105.544 41.784C105.118 41.4747 104.584 41.32 103.944 41.32C103.112 41.32 102.44 41.608 101.928 42.184C101.416 42.7493 101.16 43.5547 101.16 44.6C101.16 45.656 101.416 46.472 101.928 47.048C102.44 47.624 103.112 47.912 103.944 47.912C104.584 47.912 105.118 47.7627 105.544 47.464C105.971 47.1653 106.264 46.7387 106.424 46.184H107.992C107.758 47.08 107.288 47.8 106.584 48.344C105.88 48.8773 105 49.144 103.944 49.144C103.112 49.144 102.371 48.9573 101.72 48.584C101.08 48.2107 100.579 47.6827 100.216 47C99.8537 46.3173 99.6724 45.5173 99.6724 44.6ZM109.391 44.584C109.391 43.688 109.572 42.904 109.935 42.232C110.298 41.5493 110.794 41.0213 111.423 40.648C112.063 40.2747 112.772 40.088 113.551 40.088C114.319 40.088 114.986 40.2533 115.551 40.584C116.116 40.9147 116.538 41.3307 116.815 41.832V40.232H118.287V49H116.815V47.368C116.527 47.88 116.095 48.3067 115.519 48.648C114.954 48.9787 114.292 49.144 113.535 49.144C112.756 49.144 112.052 48.952 111.423 48.568C110.794 48.184 110.298 47.6453 109.935 46.952C109.572 46.2587 109.391 45.4693 109.391 44.584ZM116.815 44.6C116.815 43.9387 116.682 43.3627 116.415 42.872C116.148 42.3813 115.786 42.008 115.327 41.752C114.879 41.4853 114.383 41.352 113.839 41.352C113.295 41.352 112.799 41.48 112.351 41.736C111.903 41.992 111.546 42.3653 111.279 42.856C111.012 43.3467 110.879 43.9227 110.879 44.584C110.879 45.256 111.012 45.8427 111.279 46.344C111.546 46.8347 111.903 47.2133 112.351 47.48C112.799 47.736 113.295 47.864 113.839 47.864C114.383 47.864 114.879 47.736 115.327 47.48C115.786 47.2133 116.148 46.8347 116.415 46.344C116.682 45.8427 116.815 45.2613 116.815 44.6ZM122.524 41.432V46.6C122.524 47.0267 122.614 47.3307 122.796 47.512C122.977 47.6827 123.292 47.768 123.74 47.768H124.812V49H123.5C122.689 49 122.081 48.8133 121.676 48.44C121.27 48.0667 121.068 47.4533 121.068 46.6V41.432H119.932V40.232H121.068V38.024H122.524V40.232H124.812V41.432H122.524ZM134.576 44.28C134.576 44.5573 134.56 44.8507 134.528 45.16H127.52C127.573 46.024 127.866 46.7013 128.4 47.192C128.944 47.672 129.6 47.912 130.368 47.912C130.997 47.912 131.52 47.768 131.936 47.48C132.362 47.1813 132.661 46.7867 132.832 46.296H134.4C134.165 47.1387 133.696 47.8267 132.992 48.36C132.288 48.8827 131.413 49.144 130.368 49.144C129.536 49.144 128.789 48.9573 128.128 48.584C127.477 48.2107 126.965 47.6827 126.592 47C126.218 46.3067 126.032 45.5067 126.032 44.6C126.032 43.6933 126.213 42.8987 126.576 42.216C126.938 41.5333 127.445 41.0107 128.096 40.648C128.757 40.2747 129.514 40.088 130.368 40.088C131.2 40.088 131.936 40.2693 132.576 40.632C133.216 40.9947 133.706 41.496 134.048 42.136C134.4 42.7653 134.576 43.48 134.576 44.28ZM133.072 43.976C133.072 43.4213 132.949 42.9467 132.704 42.552C132.458 42.1467 132.122 41.8427 131.696 41.64C131.28 41.4267 130.816 41.32 130.304 41.32C129.568 41.32 128.938 41.5547 128.416 42.024C127.904 42.4933 127.61 43.144 127.536 43.976H133.072ZM135.954 44.584C135.954 43.688 136.135 42.904 136.498 42.232C136.86 41.5493 137.356 41.0213 137.986 40.648C138.626 40.2747 139.34 40.088 140.13 40.088C140.812 40.088 141.447 40.248 142.034 40.568C142.62 40.8773 143.068 41.288 143.378 41.8V37.16H144.85V49H143.378V47.352C143.09 47.8747 142.663 48.3067 142.098 48.648C141.532 48.9787 140.871 49.144 140.114 49.144C139.335 49.144 138.626 48.952 137.986 48.568C137.356 48.184 136.86 47.6453 136.498 46.952C136.135 46.2587 135.954 45.4693 135.954 44.584ZM143.378 44.6C143.378 43.9387 143.244 43.3627 142.978 42.872C142.711 42.3813 142.348 42.008 141.89 41.752C141.442 41.4853 140.946 41.352 140.402 41.352C139.858 41.352 139.362 41.48 138.914 41.736C138.466 41.992 138.108 42.3653 137.842 42.856C137.575 43.3467 137.442 43.9227 137.442 44.584C137.442 45.256 137.575 45.8427 137.842 46.344C138.108 46.8347 138.466 47.2133 138.914 47.48C139.362 47.736 139.858 47.864 140.402 47.864C140.946 47.864 141.442 47.736 141.89 47.48C142.348 47.2133 142.711 46.8347 142.978 46.344C143.244 45.8427 143.378 45.2613 143.378 44.6ZM154.68 49.144C154.008 49.144 153.405 49.032 152.872 48.808C152.338 48.5733 151.917 48.2533 151.608 47.848C151.298 47.432 151.128 46.9573 151.096 46.424H152.6C152.642 46.8613 152.845 47.2187 153.208 47.496C153.581 47.7733 154.066 47.912 154.664 47.912C155.218 47.912 155.656 47.7893 155.976 47.544C156.296 47.2987 156.456 46.9893 156.456 46.616C156.456 46.232 156.285 45.9493 155.944 45.768C155.602 45.576 155.074 45.3893 154.36 45.208C153.709 45.0373 153.176 44.8667 152.76 44.696C152.354 44.5147 152.002 44.2533 151.704 43.912C151.416 43.56 151.272 43.1013 151.272 42.536C151.272 42.088 151.405 41.6773 151.672 41.304C151.938 40.9307 152.317 40.6373 152.808 40.424C153.298 40.2 153.858 40.088 154.488 40.088C155.458 40.088 156.242 40.3333 156.84 40.824C157.437 41.3147 157.757 41.9867 157.8 42.84H156.344C156.312 42.3813 156.125 42.0133 155.784 41.736C155.453 41.4587 155.005 41.32 154.44 41.32C153.917 41.32 153.501 41.432 153.192 41.656C152.882 41.88 152.728 42.1733 152.728 42.536C152.728 42.824 152.818 43.064 153 43.256C153.192 43.4373 153.426 43.5867 153.704 43.704C153.992 43.8107 154.386 43.9333 154.888 44.072C155.517 44.2427 156.029 44.4133 156.424 44.584C156.818 44.744 157.154 44.9893 157.432 45.32C157.72 45.6507 157.869 46.0827 157.88 46.616C157.88 47.096 157.746 47.528 157.48 47.912C157.213 48.296 156.834 48.6 156.344 48.824C155.864 49.0373 155.309 49.144 154.68 49.144ZM167.711 40.232V49H166.255V47.704C165.978 48.152 165.588 48.504 165.087 48.76C164.596 49.0053 164.052 49.128 163.455 49.128C162.772 49.128 162.159 48.9893 161.615 48.712C161.071 48.424 160.639 47.9973 160.319 47.432C160.01 46.8667 159.855 46.1787 159.855 45.368V40.232H161.295V45.176C161.295 46.04 161.514 46.7067 161.951 47.176C162.388 47.6347 162.986 47.864 163.743 47.864C164.522 47.864 165.135 47.624 165.583 47.144C166.031 46.664 166.255 45.9653 166.255 45.048V40.232H167.711ZM171.626 41.848C171.914 41.3467 172.34 40.9307 172.906 40.6C173.482 40.2587 174.148 40.088 174.906 40.088C175.684 40.088 176.388 40.2747 177.017 40.648C177.657 41.0213 178.159 41.5493 178.522 42.232C178.884 42.904 179.066 43.688 179.066 44.584C179.066 45.4693 178.884 46.2587 178.522 46.952C178.159 47.6453 177.657 48.184 177.017 48.568C176.388 48.952 175.684 49.144 174.906 49.144C174.159 49.144 173.498 48.9787 172.922 48.648C172.356 48.3067 171.924 47.8853 171.626 47.384V53.16H170.17V40.232H171.626V41.848ZM177.578 44.584C177.578 43.9227 177.444 43.3467 177.178 42.856C176.911 42.3653 176.548 41.992 176.09 41.736C175.642 41.48 175.146 41.352 174.602 41.352C174.068 41.352 173.572 41.4853 173.114 41.752C172.666 42.008 172.303 42.3867 172.026 42.888C171.759 43.3787 171.626 43.9493 171.626 44.6C171.626 45.2613 171.759 45.8427 172.026 46.344C172.303 46.8347 172.666 47.2133 173.114 47.48C173.572 47.736 174.068 47.864 174.602 47.864C175.146 47.864 175.642 47.736 176.09 47.48C176.548 47.2133 176.911 46.8347 177.178 46.344C177.444 45.8427 177.578 45.256 177.578 44.584ZM182.438 41.848C182.726 41.3467 183.153 40.9307 183.718 40.6C184.294 40.2587 184.961 40.088 185.718 40.088C186.497 40.088 187.201 40.2747 187.83 40.648C188.47 41.0213 188.971 41.5493 189.334 42.232C189.697 42.904 189.878 43.688 189.878 44.584C189.878 45.4693 189.697 46.2587 189.334 46.952C188.971 47.6453 188.47 48.184 187.83 48.568C187.201 48.952 186.497 49.144 185.718 49.144C184.971 49.144 184.31 48.9787 183.734 48.648C183.169 48.3067 182.737 47.8853 182.438 47.384V53.16H180.982V40.232H182.438V41.848ZM188.39 44.584C188.39 43.9227 188.257 43.3467 187.99 42.856C187.723 42.3653 187.361 41.992 186.902 41.736C186.454 41.48 185.958 41.352 185.414 41.352C184.881 41.352 184.385 41.4853 183.926 41.752C183.478 42.008 183.115 42.3867 182.838 42.888C182.571 43.3787 182.438 43.9493 182.438 44.6C182.438 45.2613 182.571 45.8427 182.838 46.344C183.115 46.8347 183.478 47.2133 183.926 47.48C184.385 47.736 184.881 47.864 185.414 47.864C185.958 47.864 186.454 47.736 186.902 47.48C187.361 47.2133 187.723 46.8347 187.99 46.344C188.257 45.8427 188.39 45.256 188.39 44.584ZM195.619 49.144C194.797 49.144 194.051 48.9573 193.379 48.584C192.717 48.2107 192.195 47.6827 191.811 47C191.437 46.3067 191.251 45.5067 191.251 44.6C191.251 43.704 191.443 42.9147 191.827 42.232C192.221 41.5387 192.755 41.0107 193.427 40.648C194.099 40.2747 194.851 40.088 195.683 40.088C196.515 40.088 197.267 40.2747 197.939 40.648C198.611 41.0107 199.139 41.5333 199.523 42.216C199.917 42.8987 200.115 43.6933 200.115 44.6C200.115 45.5067 199.912 46.3067 199.507 47C199.112 47.6827 198.573 48.2107 197.891 48.584C197.208 48.9573 196.451 49.144 195.619 49.144ZM195.619 47.864C196.141 47.864 196.632 47.7413 197.091 47.496C197.549 47.2507 197.917 46.8827 198.195 46.392C198.483 45.9013 198.627 45.304 198.627 44.6C198.627 43.896 198.488 43.2987 198.211 42.808C197.933 42.3173 197.571 41.9547 197.123 41.72C196.675 41.4747 196.189 41.352 195.667 41.352C195.133 41.352 194.643 41.4747 194.195 41.72C193.757 41.9547 193.405 42.3173 193.139 42.808C192.872 43.2987 192.739 43.896 192.739 44.6C192.739 45.3147 192.867 45.9173 193.123 46.408C193.389 46.8987 193.741 47.2667 194.179 47.512C194.616 47.7467 195.096 47.864 195.619 47.864ZM203.485 41.656C203.741 41.1547 204.104 40.7653 204.573 40.488C205.053 40.2107 205.634 40.072 206.317 40.072V41.576H205.933C204.301 41.576 203.485 42.4613 203.485 44.232V49H202.029V40.232H203.485V41.656ZM209.774 41.432V46.6C209.774 47.0267 209.864 47.3307 210.046 47.512C210.227 47.6827 210.542 47.768 210.99 47.768H212.062V49H210.75C209.939 49 209.331 48.8133 208.926 48.44C208.52 48.0667 208.318 47.4533 208.318 46.6V41.432H207.182V40.232H208.318V38.024H209.774V40.232H212.062V41.432H209.774Z" fill="#484848"/>
<path d="M40.8573 29.9042C40.3862 29.4333 39.7475 29.1688 39.0815 29.1688C38.4155 29.1688 37.7767 29.4333 37.3057 29.9042L34.9372 32.2727C34.9321 32.2727 34.9305 32.2836 34.9263 32.2878L33.7541 33.4541C33.3667 33.844 32.9059 34.1535 32.3985 34.3646C31.891 34.5758 31.3467 34.6846 30.797 34.6846C30.2474 34.6846 29.7031 34.5758 29.1956 34.3646C28.688 34.1535 28.2274 33.844 27.8399 33.4541L19.5513 25.1654C19.1613 24.7779 18.8518 24.317 18.6406 23.8094C18.4294 23.3017 18.3207 22.7573 18.3207 22.2075C18.3207 21.6577 18.4294 21.1133 18.6406 20.6056C18.8518 20.098 19.1613 19.6371 19.5513 19.2495L20.7184 18.0774L20.7293 18.0707L23.0978 15.703C23.3311 15.4697 23.5162 15.1929 23.6423 14.8881C23.7686 14.5834 23.8336 14.2567 23.8336 13.9268C23.8336 13.5969 23.7686 13.2702 23.6423 12.9655C23.5162 12.6607 23.3311 12.3838 23.0978 12.1506L15.9913 5.03994C15.5129 4.58306 14.8767 4.32812 14.2151 4.32812C13.5536 4.32812 12.9174 4.58306 12.4389 5.03994L10.0712 7.40765L10.0654 7.41686C7.24548 10.2422 5.59192 14.0251 5.43339 18.0137C5.27486 22.0023 6.62295 25.9045 9.20972 28.9447V31.8625C9.08916 31.9102 8.97278 31.9588 8.85892 32.0082L6.63689 29.7861C6.47693 29.6348 6.26513 29.5506 6.04497 29.5506C5.82481 29.5506 5.613 29.6348 5.45304 29.7861L1.90316 33.336C1.7462 33.493 1.65803 33.7059 1.65803 33.9279C1.65803 34.15 1.7462 34.3629 1.90316 34.5199L4.12519 36.7419C4.07495 36.8558 4.02723 36.9721 3.97951 37.0927H0.837358C0.615307 37.0927 0.402356 37.1809 0.24534 37.3379C0.0883333 37.4949 0.00012207 37.7079 0.00012207 37.9299V42.9534C0.00012207 43.1754 0.0883333 43.3884 0.24534 43.5454C0.402356 43.7023 0.615307 43.7906 0.837358 43.7906H3.97951C4.02723 43.9112 4.07495 44.0275 4.12519 44.1406L1.90316 46.3634C1.7462 46.5204 1.65803 46.7333 1.65803 46.9553C1.65803 47.1774 1.7462 47.3903 1.90316 47.5473L5.45304 51.0972C5.61005 51.2541 5.82297 51.3423 6.04497 51.3423C6.26697 51.3423 6.47989 51.2541 6.63689 51.0972L8.85892 48.8751C8.97278 48.9245 9.08916 48.9731 9.20972 49.0208V52.163C9.20972 52.385 9.29797 52.598 9.45495 52.755C9.61193 52.9119 9.82492 53.0002 10.047 53.0002H15.0704C15.2924 53.0002 15.5054 52.9119 15.6624 52.755C15.8194 52.598 15.9076 52.385 15.9076 52.163V49.0208C16.0282 48.9731 16.1446 48.9245 16.2584 48.8751L18.4804 51.0972C18.6404 51.2484 18.8522 51.3327 19.0724 51.3327C19.2926 51.3327 19.5043 51.2484 19.6643 51.0972L23.2142 47.5473C23.3712 47.3903 23.4593 47.1774 23.4593 46.9553C23.4593 46.7333 23.3712 46.5204 23.2142 46.3634L20.9921 44.1406C21.0424 44.0275 21.0901 43.9112 21.1378 43.7906H24.0548C27.0928 46.3817 30.9957 47.7326 34.9855 47.5741C38.9752 47.4157 42.7588 45.7596 45.5818 42.9358L45.5927 42.9291L47.9604 40.5605C48.1936 40.3273 48.3787 40.0504 48.5049 39.7457C48.6312 39.4409 48.6962 39.1142 48.6962 38.7843C48.6962 38.4545 48.6312 38.1278 48.5049 37.823C48.3787 37.5183 48.1936 37.2414 47.9604 37.0081L40.8573 29.9042ZM13.6245 6.22296C13.784 6.07075 13.9959 5.98582 14.2164 5.98582C14.4368 5.98582 14.6488 6.07075 14.8083 6.22296L21.9123 13.3277C22.069 13.4847 22.157 13.6975 22.157 13.9193C22.157 14.141 22.069 14.3538 21.9123 14.5108L20.1373 16.2849L11.8487 7.99622L13.6245 6.22296ZM23.4427 42.1161H20.5459C20.3687 42.1161 20.1959 42.1724 20.0528 42.2768C19.9095 42.3812 19.8031 42.5284 19.7489 42.6972C19.6189 43.1159 19.4493 43.5213 19.2423 43.9078C19.1554 44.0665 19.1223 44.2492 19.148 44.4284C19.1737 44.6076 19.2567 44.7736 19.3847 44.9016L21.4376 46.9553L19.0724 49.3214L17.0186 47.2676C16.8905 47.1395 16.7243 47.0563 16.545 47.0307C16.3657 47.005 16.1829 47.0382 16.024 47.1253C15.6378 47.3329 15.2323 47.5025 14.8133 47.6318C14.6447 47.6863 14.4977 47.7927 14.3935 47.9359C14.2892 48.0791 14.2331 48.2517 14.2331 48.4289V51.3257H10.8842V48.4289C10.8843 48.2517 10.8281 48.0791 10.7239 47.9359C10.6196 47.7927 10.4726 47.6863 10.304 47.6318C9.88504 47.5025 9.47956 47.3329 9.09335 47.1253C8.93444 47.0382 8.75167 47.005 8.57233 47.0307C8.393 47.0563 8.22681 47.1395 8.09871 47.2676L6.04497 49.3214L3.68396 46.9553L5.73687 44.9016C5.86482 44.7736 5.94785 44.6076 5.97351 44.4284C5.99917 44.2492 5.96608 44.0665 5.8792 43.9078C5.67364 43.5212 5.50543 43.1158 5.37685 42.6972C5.32218 42.527 5.21451 42.3788 5.0696 42.2744C4.92468 42.1698 4.75012 42.1144 4.57143 42.1161H1.67459V38.7672H4.57143C4.74869 38.7672 4.92137 38.7109 5.06461 38.6065C5.20784 38.5021 5.31424 38.3549 5.36848 38.1861C5.49706 37.7675 5.66526 37.3621 5.87082 36.9755C5.9577 36.8167 5.9908 36.6341 5.96514 36.4549C5.93948 36.2757 5.85645 36.1097 5.72849 35.9817L3.68396 33.9279L6.04497 31.5619L8.09871 33.6157C8.22681 33.7438 8.393 33.827 8.57233 33.8526C8.75167 33.8783 8.93444 33.8451 9.09335 33.758C9.47956 33.5504 9.88504 33.3808 10.304 33.2515C10.4726 33.197 10.6196 33.0906 10.7239 32.9474C10.8281 32.8041 10.8843 32.6316 10.8842 32.4544V29.5576H14.2331V32.4544C14.2331 32.6316 14.2892 32.8041 14.3935 32.9474C14.4977 33.0906 14.6447 33.197 14.8133 33.2515C15.2323 33.3808 15.6378 33.5504 16.024 33.758C16.1829 33.8451 16.3657 33.8783 16.545 33.8526C16.7243 33.827 16.8905 33.7438 17.0186 33.6157L19.0724 31.5619L21.4376 33.9279L19.3847 35.9817C19.2567 36.1097 19.1737 36.2757 19.148 36.4549C19.1223 36.6341 19.1554 36.8167 19.2423 36.9755C19.4493 37.362 19.6189 37.7673 19.7489 38.1861C19.8031 38.3549 19.9095 38.5021 20.0528 38.6065C20.1959 38.7109 20.3687 38.7672 20.5459 38.7672H23.4427V42.1161ZM25.1172 42.4987V37.9299C25.1172 37.7079 25.029 37.4949 24.872 37.3379C24.715 37.1809 24.502 37.0927 24.28 37.0927H21.1378C21.0901 36.9721 21.0424 36.8558 20.9921 36.7419L23.2142 34.5199C23.3712 34.3629 23.4593 34.15 23.4593 33.9279C23.4593 33.7059 23.3712 33.493 23.2142 33.336L19.6643 29.7861C19.5073 29.6292 19.2944 29.541 19.0724 29.541C18.8503 29.541 18.6374 29.6292 18.4804 29.7861L16.2584 32.0082C16.1446 31.9588 16.0282 31.9102 15.9076 31.8625V28.7203C15.9076 28.4983 15.8194 28.2853 15.6624 28.1283C15.5054 27.9713 15.2924 27.8831 15.0704 27.8831H10.5024C8.2721 25.2723 7.06162 21.9429 7.09453 18.5093C7.12751 15.0758 8.40162 11.7702 10.6816 9.20268L18.951 17.4721L18.3649 18.0632C17.8189 18.6064 17.3857 19.2522 17.09 19.9634C16.7944 20.6747 16.6422 21.4373 16.6422 22.2075C16.6422 22.9776 16.7944 23.7403 17.09 24.4515C17.3857 25.1628 17.8189 25.8085 18.3649 26.3518L26.6535 34.6404C27.1962 35.1861 27.8414 35.6192 28.552 35.9149C29.2625 36.2105 30.0244 36.3629 30.7941 36.3633C31.5637 36.3637 32.3257 36.2121 33.0366 35.9171C33.7474 35.6222 34.393 35.1897 34.9363 34.6446L35.5316 34.0535L43.8018 42.3229C41.2335 44.6032 37.9268 45.8772 34.4924 45.9096C31.0581 45.9419 27.728 44.7303 25.1172 42.4987ZM46.7765 39.3767L45.0024 41.1508L36.7138 32.8621L38.4887 31.0889C38.6457 30.9319 38.8586 30.8437 39.0806 30.8437C39.3027 30.8437 39.5156 30.9319 39.6726 31.0889L46.7765 38.1928C46.9335 38.3498 47.0217 38.5627 47.0217 38.7848C47.0217 39.0068 46.9335 39.2197 46.7765 39.3767Z" fill="black"/>
<path d="M12.5586 36.2556C11.7307 36.2556 10.9213 36.5011 10.233 36.9611C9.54449 37.4211 9.00791 38.0748 8.6911 38.8398C8.37428 39.6047 8.29131 40.4464 8.4529 41.2585C8.6144 42.0706 9.0131 42.8165 9.59858 43.4018C10.184 43.9873 10.9299 44.386 11.742 44.5475C12.554 44.7091 13.3957 44.6261 14.1606 44.3093C14.9256 43.9925 15.5793 43.4559 16.0394 42.7675C16.4993 42.0791 16.7448 41.2697 16.7448 40.4418C16.7435 39.332 16.302 38.268 15.5173 37.4832C14.7324 36.6984 13.6685 36.257 12.5586 36.2556ZM12.5586 42.9535C12.0619 42.9535 11.5762 42.8062 11.1632 42.5302C10.7501 42.2542 10.4282 41.8619 10.2381 41.4029C10.048 40.9441 9.99827 40.439 10.0951 39.9518C10.1921 39.4646 10.4313 39.017 10.7826 38.6658C11.1338 38.3145 11.5814 38.0753 12.0686 37.9783C12.5559 37.8814 13.0609 37.9312 13.5199 38.1213C13.9787 38.3114 14.3711 38.6333 14.647 39.0464C14.9231 39.4594 15.0703 39.9451 15.0703 40.4418C15.0703 41.1079 14.8057 41.7468 14.3347 42.2178C13.8636 42.6889 13.2248 42.9535 12.5586 42.9535Z" fill="black"/>
<path d="M28.5798 3.00778C28.3598 2.97758 28.1368 3.03604 27.9598 3.17028C27.7829 3.30452 27.6665 3.50357 27.6363 3.72362C27.606 3.94367 27.6645 4.1667 27.7988 4.34366C27.933 4.52061 28.1321 4.63698 28.3521 4.66718C33.4017 5.37321 38.0837 7.7055 41.6891 11.3108C45.2944 14.9162 47.6267 19.5982 48.3328 24.6478C48.3602 24.8482 48.4593 25.0318 48.6117 25.1647C48.764 25.2977 48.9594 25.371 49.1616 25.3712C49.1997 25.3712 49.2377 25.3687 49.2755 25.3637C49.3844 25.3488 49.4894 25.3125 49.5843 25.257C49.6793 25.2015 49.7624 25.1278 49.8289 25.0402C49.8954 24.9526 49.9439 24.8527 49.9718 24.7463C49.9997 24.6399 50.0063 24.529 49.9913 24.4201C49.2346 19.0088 46.7353 13.9915 42.8718 10.1278C39.0083 6.26417 33.9911 3.76466 28.5798 3.00778Z" fill="black"/>
<path d="M28.3215 9.7528C32.039 10.4111 35.4646 12.1959 38.1342 14.8655C40.8038 17.5352 42.5886 20.9606 43.2469 24.6782C43.2808 24.8724 43.3821 25.0483 43.5329 25.1751C43.6838 25.3019 43.8745 25.3714 44.0716 25.3714C44.1201 25.3714 44.1686 25.3672 44.2164 25.3589C44.4351 25.3207 44.6297 25.1971 44.7573 25.0155C44.885 24.8339 44.9353 24.6089 44.8971 24.3902C44.1796 20.3333 42.2323 16.595 39.3192 13.6819C36.4062 10.7686 32.668 8.82119 28.6112 8.10344C28.5029 8.08442 28.3919 8.08692 28.2845 8.11079C28.1772 8.13467 28.0757 8.17944 27.9856 8.24257C27.8956 8.3057 27.8189 8.38594 27.7599 8.47872C27.7008 8.57149 27.6606 8.67498 27.6416 8.78328C27.6226 8.89158 27.6251 9.00256 27.649 9.1099C27.6729 9.21723 27.7177 9.31881 27.7808 9.40884C27.8439 9.49887 27.9241 9.57556 28.0169 9.63458C28.1097 9.69361 28.2132 9.7338 28.3215 9.7528Z" fill="black"/>
<path d="M28.2703 14.8658C30.6568 15.4563 32.8369 16.6871 34.5752 18.4256C36.3136 20.1642 37.5443 22.3443 38.1346 24.731C38.1575 24.8407 38.2023 24.9447 38.2663 25.0369C38.3302 25.129 38.412 25.2073 38.5068 25.2672C38.6016 25.3272 38.7074 25.3673 38.8181 25.3856C38.9287 25.4038 39.0419 25.3996 39.1509 25.3732C39.2599 25.3468 39.3625 25.2989 39.4526 25.2321C39.5427 25.1653 39.6184 25.0812 39.6754 24.9846C39.7323 24.8879 39.7692 24.7809 39.784 24.6698C39.7988 24.5586 39.7911 24.4455 39.7613 24.3375C39.0976 21.6519 37.713 19.1987 35.7568 17.2426C33.8008 15.2866 31.3476 13.902 28.6621 13.2382C28.5543 13.2098 28.4419 13.2032 28.3316 13.2188C28.2212 13.2344 28.1151 13.2719 28.0194 13.3291C27.9237 13.3862 27.8404 13.4618 27.7743 13.5517C27.7082 13.6414 27.6609 13.7435 27.6347 13.8518C27.6086 13.9602 27.6044 14.0727 27.6224 14.1827C27.6403 14.2927 27.6801 14.398 27.7393 14.4925C27.7985 14.5869 27.8759 14.6685 27.9671 14.7327C28.0583 14.7968 28.1613 14.842 28.2703 14.8658Z" fill="black"/>
<path d="M30.1406 26.2088C30.8029 26.2088 31.4504 26.0123 32.0012 25.6444C32.5519 25.2764 32.9811 24.7533 33.2346 24.1414C33.4881 23.5294 33.5544 22.8561 33.4251 22.2064C33.2959 21.5568 32.977 20.9601 32.5086 20.4918C32.0403 20.0234 31.4436 19.7044 30.7939 19.5753C30.1443 19.446 29.4709 19.5123 28.859 19.7658C28.2471 20.0192 27.724 20.4485 27.356 20.9992C26.988 21.55 26.7916 22.1975 26.7916 22.8598C26.7916 23.748 27.1444 24.5998 27.7725 25.2279C28.4005 25.8559 29.2523 26.2088 30.1406 26.2088ZM30.1406 21.1853C30.4718 21.1853 30.7955 21.2835 31.0708 21.4676C31.3462 21.6515 31.5609 21.9131 31.6876 22.219C31.8143 22.525 31.8474 22.8617 31.7829 23.1865C31.7183 23.5113 31.5588 23.8097 31.3246 24.0438C31.0904 24.278 30.792 24.4375 30.4673 24.5021C30.1424 24.5667 29.8058 24.5335 29.4998 24.4069C29.1938 24.2801 28.9323 24.0654 28.7483 23.7901C28.5643 23.5147 28.4661 23.191 28.4661 22.8598C28.4661 22.4157 28.6425 21.9898 28.9566 21.6758C29.2706 21.3617 29.6965 21.1853 30.1406 21.1853Z" fill="black"/>
</svg>
