<svg width="246" height="56" viewBox="0 0 246 56" fill="none" xmlns="http://www.w3.org/2000/svg">
<path d="M70.6 8.1L66.48 22H63.9L60.98 11.48L57.88 22L55.32 22.02L51.38 8.1H53.8L56.68 19.42L59.8 8.1H62.36L65.26 19.36L68.16 8.1H70.6ZM71.7205 16.44C71.7205 15.3333 71.9471 14.3533 72.4005 13.5C72.8671 12.6467 73.4938 11.9867 74.2805 11.52C75.0805 11.04 75.9605 10.8 76.9205 10.8C77.7871 10.8 78.5405 10.9733 79.1805 11.32C79.8338 11.6533 80.3538 12.0733 80.7405 12.58V10.98H83.0405V22H80.7405V20.36C80.3538 20.88 79.8271 21.3133 79.1605 21.66C78.4938 22.0067 77.7338 22.18 76.8805 22.18C75.9338 22.18 75.0671 21.94 74.2805 21.46C73.4938 20.9667 72.8671 20.2867 72.4005 19.42C71.9471 18.54 71.7205 17.5467 71.7205 16.44ZM80.7405 16.48C80.7405 15.72 80.5805 15.06 80.2605 14.5C79.9538 13.94 79.5471 13.5133 79.0405 13.22C78.5338 12.9267 77.9871 12.78 77.4005 12.78C76.8138 12.78 76.2671 12.9267 75.7605 13.22C75.2538 13.5 74.8405 13.92 74.5205 14.48C74.2138 15.0267 74.0605 15.68 74.0605 16.44C74.0605 17.2 74.2138 17.8667 74.5205 18.44C74.8405 19.0133 75.2538 19.4533 75.7605 19.76C76.2805 20.0533 76.8271 20.2 77.4005 20.2C77.9871 20.2 78.5338 20.0533 79.0405 19.76C79.5471 19.4667 79.9538 19.04 80.2605 18.48C80.5805 17.9067 80.7405 17.24 80.7405 16.48ZM88.3152 12.58C88.6485 12.02 89.0885 11.5867 89.6352 11.28C90.1952 10.96 90.8552 10.8 91.6152 10.8V13.16H91.0352C90.1418 13.16 89.4618 13.3867 88.9952 13.84C88.5418 14.2933 88.3152 15.08 88.3152 16.2V22H86.0352V10.98H88.3152V12.58ZM95.9909 12.58C96.3243 12.02 96.7643 11.5867 97.3109 11.28C97.8709 10.96 98.5309 10.8 99.2909 10.8V13.16H98.7109C97.8176 13.16 97.1376 13.3867 96.6709 13.84C96.2176 14.2933 95.9909 15.08 95.9909 16.2V22H93.7109V10.98H95.9909V12.58ZM100.627 16.44C100.627 15.3333 100.853 14.3533 101.307 13.5C101.773 12.6467 102.4 11.9867 103.187 11.52C103.987 11.04 104.867 10.8 105.827 10.8C106.693 10.8 107.447 10.9733 108.087 11.32C108.74 11.6533 109.26 12.0733 109.647 12.58V10.98H111.947V22H109.647V20.36C109.26 20.88 108.733 21.3133 108.067 21.66C107.4 22.0067 106.64 22.18 105.787 22.18C104.84 22.18 103.973 21.94 103.187 21.46C102.4 20.9667 101.773 20.2867 101.307 19.42C100.853 18.54 100.627 17.5467 100.627 16.44ZM109.647 16.48C109.647 15.72 109.487 15.06 109.167 14.5C108.86 13.94 108.453 13.5133 107.947 13.22C107.44 12.9267 106.893 12.78 106.307 12.78C105.72 12.78 105.173 12.9267 104.667 13.22C104.16 13.5 103.747 13.92 103.427 14.48C103.12 15.0267 102.967 15.68 102.967 16.44C102.967 17.2 103.12 17.8667 103.427 18.44C103.747 19.0133 104.16 19.4533 104.667 19.76C105.187 20.0533 105.733 20.2 106.307 20.2C106.893 20.2 107.44 20.0533 107.947 19.76C108.453 19.4667 108.86 19.04 109.167 18.48C109.487 17.9067 109.647 17.24 109.647 16.48ZM120.501 10.8C121.368 10.8 122.141 10.98 122.821 11.34C123.515 11.7 124.055 12.2333 124.441 12.94C124.828 13.6467 125.021 14.5 125.021 15.5V22H122.761V15.84C122.761 14.8533 122.515 14.1 122.021 13.58C121.528 13.0467 120.855 12.78 120.001 12.78C119.148 12.78 118.468 13.0467 117.961 13.58C117.468 14.1 117.221 14.8533 117.221 15.84V22H114.941V10.98H117.221V12.24C117.595 11.7867 118.068 11.4333 118.641 11.18C119.228 10.9267 119.848 10.8 120.501 10.8ZM137.85 10.98L131.09 27.18H128.73L130.97 21.82L126.63 10.98H129.17L132.27 19.38L135.49 10.98H137.85ZM154.486 12.24C154.486 12.9467 154.319 13.6133 153.986 14.24C153.652 14.8667 153.119 15.38 152.386 15.78C151.652 16.1667 150.712 16.36 149.566 16.36H147.046V22H144.766V8.1H149.566C150.632 8.1 151.532 8.28667 152.266 8.66C153.012 9.02 153.566 9.51333 153.926 10.14C154.299 10.7667 154.486 11.4667 154.486 12.24ZM149.566 14.5C150.432 14.5 151.079 14.3067 151.506 13.92C151.932 13.52 152.146 12.96 152.146 12.24C152.146 10.72 151.286 9.96 149.566 9.96H147.046V14.5H149.566ZM158.94 12.58C159.273 12.02 159.713 11.5867 160.26 11.28C160.82 10.96 161.48 10.8 162.24 10.8V13.16H161.66C160.767 13.16 160.087 13.3867 159.62 13.84C159.167 14.2933 158.94 15.08 158.94 16.2V22H156.66V10.98H158.94V12.58ZM169.116 22.18C168.076 22.18 167.136 21.9467 166.296 21.48C165.456 21 164.796 20.3333 164.316 19.48C163.836 18.6133 163.596 17.6133 163.596 16.48C163.596 15.36 163.843 14.3667 164.336 13.5C164.829 12.6333 165.503 11.9667 166.356 11.5C167.209 11.0333 168.163 10.8 169.216 10.8C170.269 10.8 171.223 11.0333 172.076 11.5C172.929 11.9667 173.603 12.6333 174.096 13.5C174.589 14.3667 174.836 15.36 174.836 16.48C174.836 17.6 174.583 18.5933 174.076 19.46C173.569 20.3267 172.876 21 171.996 21.48C171.129 21.9467 170.169 22.18 169.116 22.18ZM169.116 20.2C169.703 20.2 170.249 20.06 170.756 19.78C171.276 19.5 171.696 19.08 172.016 18.52C172.336 17.96 172.496 17.28 172.496 16.48C172.496 15.68 172.343 15.0067 172.036 14.46C171.729 13.9 171.323 13.48 170.816 13.2C170.309 12.92 169.763 12.78 169.176 12.78C168.589 12.78 168.043 12.92 167.536 13.2C167.043 13.48 166.649 13.9 166.356 14.46C166.063 15.0067 165.916 15.68 165.916 16.48C165.916 17.6667 166.216 18.5867 166.816 19.24C167.429 19.88 168.196 20.2 169.116 20.2ZM179.75 12.84V18.94C179.75 19.3533 179.843 19.6533 180.03 19.84C180.23 20.0133 180.563 20.1 181.03 20.1H182.43V22H180.63C179.603 22 178.817 21.76 178.27 21.28C177.723 20.8 177.45 20.02 177.45 18.94V12.84H176.15V10.98H177.45V8.24H179.75V10.98H182.43V12.84H179.75ZM194.631 16.22C194.631 16.6333 194.605 17.0067 194.551 17.34H186.131C186.198 18.22 186.525 18.9267 187.111 19.46C187.698 19.9933 188.418 20.26 189.271 20.26C190.498 20.26 191.365 19.7467 191.871 18.72H194.331C193.998 19.7333 193.391 20.5667 192.511 21.22C191.645 21.86 190.565 22.18 189.271 22.18C188.218 22.18 187.271 21.9467 186.431 21.48C185.605 21 184.951 20.3333 184.471 19.48C184.005 18.6133 183.771 17.6133 183.771 16.48C183.771 15.3467 183.998 14.3533 184.451 13.5C184.918 12.6333 185.565 11.9667 186.391 11.5C187.231 11.0333 188.191 10.8 189.271 10.8C190.311 10.8 191.238 11.0267 192.051 11.48C192.865 11.9333 193.498 12.5733 193.951 13.4C194.405 14.2133 194.631 15.1533 194.631 16.22ZM192.251 15.5C192.238 14.66 191.938 13.9867 191.351 13.48C190.765 12.9733 190.038 12.72 189.171 12.72C188.385 12.72 187.711 12.9733 187.151 13.48C186.591 13.9733 186.258 14.6467 186.151 15.5H192.251ZM196.115 16.48C196.115 15.3467 196.342 14.3533 196.795 13.5C197.262 12.6333 197.902 11.9667 198.715 11.5C199.528 11.0333 200.462 10.8 201.515 10.8C202.848 10.8 203.948 11.12 204.815 11.76C205.695 12.3867 206.288 13.2867 206.595 14.46H204.135C203.935 13.9133 203.615 13.4867 203.175 13.18C202.735 12.8733 202.182 12.72 201.515 12.72C200.582 12.72 199.835 13.0533 199.275 13.72C198.728 14.3733 198.455 15.2933 198.455 16.48C198.455 17.6667 198.728 18.5933 199.275 19.26C199.835 19.9267 200.582 20.26 201.515 20.26C202.835 20.26 203.708 19.68 204.135 18.52H206.595C206.275 19.64 205.675 20.5333 204.795 21.2C203.915 21.8533 202.822 22.18 201.515 22.18C200.462 22.18 199.528 21.9467 198.715 21.48C197.902 21 197.262 20.3333 196.795 19.48C196.342 18.6133 196.115 17.6133 196.115 16.48ZM211.527 12.84V18.94C211.527 19.3533 211.621 19.6533 211.807 19.84C212.007 20.0133 212.341 20.1 212.807 20.1H214.207V22H212.407C211.381 22 210.594 21.76 210.047 21.28C209.501 20.8 209.227 20.02 209.227 18.94V12.84H207.927V10.98H209.227V8.24H211.527V10.98H214.207V12.84H211.527ZM217.469 9.52C217.055 9.52 216.709 9.38 216.429 9.1C216.149 8.82 216.009 8.47333 216.009 8.06C216.009 7.64667 216.149 7.3 216.429 7.02C216.709 6.74 217.055 6.6 217.469 6.6C217.869 6.6 218.209 6.74 218.489 7.02C218.769 7.3 218.909 7.64667 218.909 8.06C218.909 8.47333 218.769 8.82 218.489 9.1C218.209 9.38 217.869 9.52 217.469 9.52ZM218.589 10.98V22H216.309V10.98H218.589ZM226.362 22.18C225.322 22.18 224.382 21.9467 223.542 21.48C222.702 21 222.042 20.3333 221.562 19.48C221.082 18.6133 220.842 17.6133 220.842 16.48C220.842 15.36 221.089 14.3667 221.582 13.5C222.075 12.6333 222.749 11.9667 223.602 11.5C224.455 11.0333 225.409 10.8 226.462 10.8C227.515 10.8 228.469 11.0333 229.322 11.5C230.175 11.9667 230.849 12.6333 231.342 13.5C231.835 14.3667 232.082 15.36 232.082 16.48C232.082 17.6 231.829 18.5933 231.322 19.46C230.815 20.3267 230.122 21 229.242 21.48C228.375 21.9467 227.415 22.18 226.362 22.18ZM226.362 20.2C226.949 20.2 227.495 20.06 228.002 19.78C228.522 19.5 228.942 19.08 229.262 18.52C229.582 17.96 229.742 17.28 229.742 16.48C229.742 15.68 229.589 15.0067 229.282 14.46C228.975 13.9 228.569 13.48 228.062 13.2C227.555 12.92 227.009 12.78 226.422 12.78C225.835 12.78 225.289 12.92 224.782 13.2C224.289 13.48 223.895 13.9 223.602 14.46C223.309 15.0067 223.162 15.68 223.162 16.48C223.162 17.6667 223.462 18.5867 224.062 19.24C224.675 19.88 225.442 20.2 226.362 20.2ZM239.896 10.8C240.763 10.8 241.536 10.98 242.216 11.34C242.909 11.7 243.449 12.2333 243.836 12.94C244.223 13.6467 244.416 14.5 244.416 15.5V22H242.156V15.84C242.156 14.8533 241.909 14.1 241.416 13.58C240.923 13.0467 240.249 12.78 239.396 12.78C238.543 12.78 237.863 13.0467 237.356 13.58C236.863 14.1 236.616 14.8533 236.616 15.84V22H234.336V10.98H236.616V12.24C236.989 11.7867 237.463 11.4333 238.036 11.18C238.623 10.9267 239.243 10.8 239.896 10.8Z" fill="#484848"/>
<path d="M57.288 49.112C56.2533 49.112 55.3093 48.872 54.456 48.392C53.6027 47.9013 52.9253 47.224 52.424 46.36C51.9333 45.4853 51.688 44.504 51.688 43.416C51.688 42.328 51.9333 41.352 52.424 40.488C52.9253 39.6133 53.6027 38.936 54.456 38.456C55.3093 37.9653 56.2533 37.72 57.288 37.72C58.3333 37.72 59.2827 37.9653 60.136 38.456C60.9893 38.936 61.6613 39.608 62.152 40.472C62.6427 41.336 62.888 42.3173 62.888 43.416C62.888 44.5147 62.6427 45.496 62.152 46.36C61.6613 47.224 60.9893 47.9013 60.136 48.392C59.2827 48.872 58.3333 49.112 57.288 49.112ZM57.288 47.848C58.0667 47.848 58.7653 47.6667 59.384 47.304C60.0133 46.9413 60.504 46.424 60.856 45.752C61.2187 45.08 61.4 44.3013 61.4 43.416C61.4 42.52 61.2187 41.7413 60.856 41.08C60.504 40.408 60.0187 39.8907 59.4 39.528C58.7813 39.1653 58.0773 38.984 57.288 38.984C56.4987 38.984 55.7947 39.1653 55.176 39.528C54.5573 39.8907 54.0667 40.408 53.704 41.08C53.352 41.7413 53.176 42.52 53.176 43.416C53.176 44.3013 53.352 45.08 53.704 45.752C54.0667 46.424 54.5573 46.9413 55.176 47.304C55.8053 47.6667 56.5093 47.848 57.288 47.848ZM68.0741 47.656L70.7941 40.232H72.3461L68.9061 49H67.2101L63.7701 40.232H65.3381L68.0741 47.656ZM81.7789 44.28C81.7789 44.5573 81.7629 44.8507 81.7309 45.16H74.7229C74.7762 46.024 75.0695 46.7013 75.6029 47.192C76.1469 47.672 76.8029 47.912 77.5709 47.912C78.2002 47.912 78.7229 47.768 79.1389 47.48C79.5655 47.1813 79.8642 46.7867 80.0349 46.296H81.6029C81.3682 47.1387 80.8989 47.8267 80.1949 48.36C79.4909 48.8827 78.6162 49.144 77.5709 49.144C76.7389 49.144 75.9922 48.9573 75.3309 48.584C74.6802 48.2107 74.1682 47.6827 73.7949 47C73.4215 46.3067 73.2349 45.5067 73.2349 44.6C73.2349 43.6933 73.4162 42.8987 73.7789 42.216C74.1415 41.5333 74.6482 41.0107 75.2989 40.648C75.9602 40.2747 76.7175 40.088 77.5709 40.088C78.4029 40.088 79.1389 40.2693 79.7789 40.632C80.4189 40.9947 80.9095 41.496 81.2509 42.136C81.6029 42.7653 81.7789 43.48 81.7789 44.28ZM80.2749 43.976C80.2749 43.4213 80.1522 42.9467 79.9069 42.552C79.6615 42.1467 79.3255 41.8427 78.8989 41.64C78.4829 41.4267 78.0189 41.32 77.5069 41.32C76.7709 41.32 76.1415 41.5547 75.6189 42.024C75.1069 42.4933 74.8135 43.144 74.7389 43.976H80.2749ZM85.1568 41.656C85.4128 41.1547 85.7754 40.7653 86.2448 40.488C86.7248 40.2107 87.3061 40.072 87.9888 40.072V41.576H87.6048C85.9728 41.576 85.1568 42.4613 85.1568 44.232V49H83.7008V40.232H85.1568V41.656ZM93.5191 47.832C94.8738 46.744 95.9351 45.8533 96.7031 45.16C97.4711 44.456 98.1165 43.7253 98.6391 42.968C99.1725 42.2 99.4391 41.448 99.4391 40.712C99.4391 40.0187 99.2685 39.4747 98.9271 39.08C98.5965 38.6747 98.0578 38.472 97.3111 38.472C96.5858 38.472 96.0205 38.7013 95.6151 39.16C95.2205 39.608 95.0071 40.2107 94.9751 40.968H93.5671C93.6098 39.7733 93.9725 38.8507 94.6551 38.2C95.3378 37.5493 96.2178 37.224 97.2951 37.224C98.3938 37.224 99.2631 37.528 99.9031 38.136C100.554 38.744 100.879 39.5813 100.879 40.648C100.879 41.5333 100.612 42.3973 100.079 43.24C99.5565 44.072 98.9591 44.808 98.2871 45.448C97.6151 46.0773 96.7565 46.8133 95.7111 47.656H101.215V48.872H93.5191V47.832ZM114.956 40.232L109.676 53.128H108.172L109.9 48.904L106.364 40.232H107.98L110.732 47.336L113.452 40.232H114.956ZM124.42 44.28C124.42 44.5573 124.404 44.8507 124.372 45.16H117.364C117.417 46.024 117.71 46.7013 118.244 47.192C118.788 47.672 119.444 47.912 120.212 47.912C120.841 47.912 121.364 47.768 121.78 47.48C122.206 47.1813 122.505 46.7867 122.676 46.296H124.244C124.009 47.1387 123.54 47.8267 122.836 48.36C122.132 48.8827 121.257 49.144 120.212 49.144C119.38 49.144 118.633 48.9573 117.972 48.584C117.321 48.2107 116.809 47.6827 116.436 47C116.062 46.3067 115.876 45.5067 115.876 44.6C115.876 43.6933 116.057 42.8987 116.42 42.216C116.782 41.5333 117.289 41.0107 117.94 40.648C118.601 40.2747 119.358 40.088 120.212 40.088C121.044 40.088 121.78 40.2693 122.42 40.632C123.06 40.9947 123.55 41.496 123.892 42.136C124.244 42.7653 124.42 43.48 124.42 44.28ZM122.916 43.976C122.916 43.4213 122.793 42.9467 122.548 42.552C122.302 42.1467 121.966 41.8427 121.54 41.64C121.124 41.4267 120.66 41.32 120.148 41.32C119.412 41.32 118.782 41.5547 118.26 42.024C117.748 42.4933 117.454 43.144 117.38 43.976H122.916ZM125.797 44.584C125.797 43.688 125.979 42.904 126.341 42.232C126.704 41.5493 127.2 41.0213 127.829 40.648C128.469 40.2747 129.179 40.088 129.957 40.088C130.725 40.088 131.392 40.2533 131.957 40.584C132.523 40.9147 132.944 41.3307 133.221 41.832V40.232H134.693V49H133.221V47.368C132.933 47.88 132.501 48.3067 131.925 48.648C131.36 48.9787 130.699 49.144 129.941 49.144C129.163 49.144 128.459 48.952 127.829 48.568C127.2 48.184 126.704 47.6453 126.341 46.952C125.979 46.2587 125.797 45.4693 125.797 44.584ZM133.221 44.6C133.221 43.9387 133.088 43.3627 132.821 42.872C132.555 42.3813 132.192 42.008 131.733 41.752C131.285 41.4853 130.789 41.352 130.245 41.352C129.701 41.352 129.205 41.48 128.757 41.736C128.309 41.992 127.952 42.3653 127.685 42.856C127.419 43.3467 127.285 43.9227 127.285 44.584C127.285 45.256 127.419 45.8427 127.685 46.344C127.952 46.8347 128.309 47.2133 128.757 47.48C129.205 47.736 129.701 47.864 130.245 47.864C130.789 47.864 131.285 47.736 131.733 47.48C132.192 47.2133 132.555 46.8347 132.821 46.344C133.088 45.8427 133.221 45.2613 133.221 44.6ZM138.61 41.656C138.866 41.1547 139.229 40.7653 139.698 40.488C140.178 40.2107 140.759 40.072 141.442 40.072V41.576H141.058C139.426 41.576 138.61 42.4613 138.61 44.232V49H137.154V40.232H138.61V41.656ZM146.227 49.144C145.555 49.144 144.952 49.032 144.419 48.808C143.885 48.5733 143.464 48.2533 143.155 47.848C142.845 47.432 142.675 46.9573 142.643 46.424H144.147C144.189 46.8613 144.392 47.2187 144.755 47.496C145.128 47.7733 145.613 47.912 146.211 47.912C146.765 47.912 147.203 47.7893 147.523 47.544C147.843 47.2987 148.003 46.9893 148.003 46.616C148.003 46.232 147.832 45.9493 147.491 45.768C147.149 45.576 146.621 45.3893 145.907 45.208C145.256 45.0373 144.723 44.8667 144.307 44.696C143.901 44.5147 143.549 44.2533 143.251 43.912C142.963 43.56 142.819 43.1013 142.819 42.536C142.819 42.088 142.952 41.6773 143.219 41.304C143.485 40.9307 143.864 40.6373 144.355 40.424C144.845 40.2 145.405 40.088 146.035 40.088C147.005 40.088 147.789 40.3333 148.387 40.824C148.984 41.3147 149.304 41.9867 149.347 42.84H147.891C147.859 42.3813 147.672 42.0133 147.331 41.736C147 41.4587 146.552 41.32 145.987 41.32C145.464 41.32 145.048 41.432 144.739 41.656C144.429 41.88 144.275 42.1733 144.275 42.536C144.275 42.824 144.365 43.064 144.547 43.256C144.739 43.4373 144.973 43.5867 145.251 43.704C145.539 43.8107 145.933 43.9333 146.435 44.072C147.064 44.2427 147.576 44.4133 147.971 44.584C148.365 44.744 148.701 44.9893 148.979 45.32C149.267 45.6507 149.416 46.0827 149.427 46.616C149.427 47.096 149.293 47.528 149.027 47.912C148.76 48.296 148.381 48.6 147.891 48.824C147.411 49.0373 146.856 49.144 146.227 49.144Z" fill="#484848"/>
<path d="M37.7767 21.2508L34.5201 17.6943L35.5391 13.0042C35.6336 12.5882 35.3815 12.1722 34.9718 12.037L30.36 10.5603L28.8788 5.99501C28.7422 5.58943 28.322 5.35025 27.9018 5.43344L23.164 6.44218L19.5712 3.21839C19.256 2.9272 18.7623 2.9272 18.4471 3.21839L14.8543 6.44218L10.1165 5.43344C9.69629 5.33985 9.27608 5.58943 9.13951 5.99501L7.64777 10.5603L3.02549 12.037C2.61578 12.1722 2.37418 12.5882 2.45822 13.0042L3.47721 17.6943L0.220609 21.2508C-0.0735364 21.5628 -0.0735364 22.0516 0.220609 22.3636L3.47721 25.9201L2.45822 30.6102C2.36367 31.0262 2.61578 31.4422 3.02549 31.5774L7.63727 33.0541L7.82636 33.6468L2.34266 48.6947C2.2166 49.0275 2.32165 49.4018 2.60529 49.6202C2.87841 49.8386 3.26711 49.8698 3.57176 49.6826L9.17103 46.2924L11.2826 52.4384C11.3981 52.7712 11.7133 53 12.0705 53H12.081C12.4381 53 12.7533 52.7816 12.8689 52.4488L17.5647 39.5953L18.4471 40.3856C18.6047 40.5312 18.8043 40.604 19.0144 40.604C19.2245 40.604 19.4136 40.5312 19.5817 40.3856L20.4641 39.5953L25.1599 52.4488C25.2755 52.7816 25.6012 53 25.9478 53H25.9583C26.3155 53 26.6307 52.7712 26.7462 52.4384L28.8578 46.2924L34.4571 49.6826C34.7617 49.8698 35.1504 49.8386 35.4235 49.6202C35.6967 49.4018 35.8017 49.0275 35.6862 48.6947L30.1919 33.6572L30.381 33.0645L34.9928 31.5878C35.4025 31.4526 35.6441 31.0366 35.5601 30.6206L34.5411 25.9305L37.7977 22.374C38.0708 22.0516 38.0708 21.5732 37.7767 21.2508ZM12.0915 49.6618L10.4106 44.7741C10.3266 44.5349 10.1375 44.3478 9.89589 44.2542C9.65427 44.1606 9.39164 44.1918 9.17103 44.327L4.71682 47.0204L8.65627 36.2363L9.108 37.6194C9.24457 38.025 9.66477 38.2641 10.085 38.1809L14.8228 37.1722L16.1885 38.3993L12.0915 49.6618ZM33.27 47.0308L28.8158 44.3374C28.5951 44.2022 28.3325 44.1814 28.0909 44.2646C27.8493 44.3478 27.6602 44.5349 27.5761 44.7845L25.8953 49.6722L21.7773 38.4097L23.1429 37.1826L27.8808 38.1913C28.301 38.2849 28.7212 38.0354 28.8578 37.6298L29.3095 36.2467L33.27 47.0308ZM32.9968 25.1298C32.8182 25.3274 32.7447 25.5977 32.7972 25.8577L33.7427 30.2359L29.4461 31.6086C29.1939 31.6918 28.9838 31.8893 28.8998 32.1493L28.4901 33.3972L27.5131 36.4027L23.0904 35.4667C22.8278 35.4147 22.5547 35.4875 22.3551 35.6643L19.0039 38.6593L15.6527 35.6539C15.4952 35.5187 15.2956 35.4355 15.0855 35.4355C15.0224 35.4355 14.9699 35.4459 14.9069 35.4563L10.4842 36.3923L9.5072 33.3869L9.09749 32.1389C9.01345 31.8893 8.81385 31.6814 8.55122 31.5982L4.2651 30.2359L5.21057 25.8577C5.26309 25.5977 5.18956 25.3274 5.01097 25.1298L1.98548 21.8124L5.02148 18.495C5.20006 18.2974 5.2736 18.027 5.22107 17.767L4.27561 13.3889L8.57223 12.0162C8.82436 11.933 9.03446 11.7354 9.1185 11.4755L10.4947 7.22213L14.9174 8.15807C15.18 8.21007 15.4531 8.13727 15.6527 7.96048L19.0039 4.96547L22.3551 7.97088C22.5547 8.14767 22.8278 8.22047 23.0904 8.16847L27.5131 7.23253L28.8998 11.4859C28.9838 11.7354 29.1834 11.9434 29.4461 12.0266L33.7427 13.3993L32.7972 17.7774C32.7447 18.0374 32.8182 18.3078 32.9968 18.5054L36.0223 21.8124L32.9968 25.1298Z" fill="black"/>
<path d="M19.004 9.74915C12.0495 9.74915 6.39772 15.344 6.39772 22.2283C6.39772 29.1127 12.0495 34.7076 19.004 34.7076C25.9584 34.7076 31.6102 29.1127 31.6102 22.2283C31.6102 15.344 25.9584 9.74915 19.004 9.74915ZM19.004 33.0437C12.9845 33.0437 8.07855 28.1872 8.07855 22.2283C8.07855 16.2695 12.9845 11.413 19.004 11.413C25.0234 11.413 29.9294 16.2695 29.9294 22.2283C29.9294 28.1872 25.0234 33.0437 19.004 33.0437Z" fill="black"/>
<path d="M23.6998 16.0511L16.4828 23.1227L14.3082 20.9908C13.6569 20.3565 12.5958 20.3565 11.934 20.9908L10.5999 22.2907C10.2847 22.6027 10.1061 23.0187 10.1061 23.4659C10.1061 23.913 10.2847 24.329 10.5999 24.641L15.2957 29.2375C15.6213 29.5599 16.0521 29.7159 16.4828 29.7159C16.9135 29.7159 17.3442 29.5599 17.6699 29.2375L27.4082 19.7117C27.7233 19.3997 27.9019 18.9838 27.9019 18.5366C27.9019 18.0894 27.7233 17.6734 27.4082 17.3615L26.074 16.0615C25.4227 15.4168 24.3512 15.4168 23.6998 16.0511ZM18.4157 26.1697L16.4828 28.052L11.7974 23.4659L13.1316 22.1763L15.8945 24.8802C16.2201 25.2026 16.7454 25.2026 17.0711 24.8802L24.8869 17.2367L24.2986 16.6439L26.2211 18.5262L18.4157 26.1697Z" fill="black"/>
</svg>
